<svg xmlns="http://www.w3.org/2000/svg" viewBox="0 0 480.115 480.115"><path d="M324.779 245.725l-77.664-144.736a8.32 8.32 0 00-14.096 0l-77.664 144.736a93.032 93.032 0 002.168 92.52c27.586 45.588 86.905 60.181 132.493 32.595a96.486 96.486 0 0032.595-32.595 93.034 93.034 0 002.168-92.52zm-15.888 84.296a79.425 79.425 0 01-68.824 38.752 79.425 79.425 0 01-68.8-38.752 77.185 77.185 0 01-1.792-76.736l70.592-131.592 70.616 131.592a77.184 77.184 0 01-1.792 76.736z"></path><path d="M476.186 197.851a239.822 239.822 0 00-18.807-58.829 8.064 8.064 0 00-7.712-4.584 8 8 0 00-7.12 5.464l-8.76 26.4-22.888-5.44a8 8 0 00-9.232 10.896 174.635 174.635 0 0113.992 69.016c-.636 82.269-57.889 153.247-138.16 171.28a8.059 8.059 0 00-4.576 2.872l-22.824 29.048a8 8 0 001.337 11.234l.007.006 25.44 20a7.997 7.997 0 004.944 1.712 7.185 7.185 0 001.44-.152c130.295-23.75 216.668-148.628 192.919-278.923zM315.655 451.555a223.896 223.896 0 01-31.756 8.795v.008l-16.28-12.8 16.136-20.528c86.229-20.746 147.234-97.569 147.904-186.256a190.262 190.262 0 00-9.8-60.872l15.36 3.648a8 8 0 009.44-5.264l4.304-12.976c41.68 116.408-18.899 244.564-135.308 286.245zM422.139 84.405A240.004 240.004 0 00240.595.773h-.528C163.151.94 90.943 37.841 45.747 100.077a8 8 0 006.48 12.696h24.864l3.056 22.192a8.003 8.003 0 003.936 5.856l1.104.632a8 8 0 0010.52-2.328 176.288 176.288 0 01143.936-74.776h.424a175.825 175.825 0 01133.24 61.6 8.002 8.002 0 006.08 2.8h36.68a8 8 0 008-8V89.621a8.053 8.053 0 00-1.928-5.216zm-14.072 28.368h-25.072a191.77 191.77 0 00-142.928-64.424h-.432a192.312 192.312 0 00-145.968 67.376l-1.656-12a8 8 0 00-7.944-6.952H68.619a224.692 224.692 0 01171.448-80h.488a224.001 224.001 0 01167.512 75.84v20.16zM224.403 415.661c-96.756-8.325-168.444-93.509-160.12-190.266a175.822 175.822 0 017.624-38.222 7.956 7.956 0 00-.192-5.392l-12.8-32a8 8 0 00-10.395-4.466l-.005.002-30.68 12.296a8.054 8.054 0 00-4.6 4.8c-43.288 125.182 23.101 261.755 148.283 305.042a239.837 239.837 0 0053.141 11.838c.266.03.533.046.8.048a8 8 0 006.672-12.416l-14.656-22.152 20.656-13.664a8.003 8.003 0 003.584-6.672v-.8a8.001 8.001 0 00-7.312-7.976zm-34.69 31.279l.001.002v-.04l9.264 14.008C77.443 438.31-2.761 321.466 19.838 199.93a223.866 223.866 0 017.372-28.829l19.816-7.928 8.8 21.944a191.25 191.25 0 00-8.184 54.856c.3 91.759 65.085 170.655 155.032 188.8l-10.704 7.08a8.001 8.001 0 00-2.257 11.087z"></path></svg> 