<svg xmlns="http://www.w3.org/2000/svg" viewBox="0 -8 512.001 512"><path d="M509.09 290.969l-50.711-50.953V192.28c0-.437-.04-.863-.094-1.289 12.649-17.195 11.2-41.578-4.344-57.125L335.734 15.664c-.02-.02-.039-.035-.058-.055C325.555 5.543 312.129 0 297.848 0c-14.332 0-27.805 5.582-37.938 15.715L115.277 160.348c-.3.3-.57.62-.824.945-31.176 5.09-55.121 31.918-55.738 64.363L24.488 373.59C10.308 378.066 0 391.336 0 406.973v79c0 5.359 4.215 9.718 9.508 9.976.117.016.265.024.492.024h405c5.523 0 10-4.477 10-10 0-5.52-4.477-10-10-10H250.285v-69c0-15.586-10.246-28.82-24.351-33.34L193.578 233.8l117.965-117.965 75.996 75.996c-.004.152-.02.3-.02.45v47.734l-50.71 50.953a9.996 9.996 0 00-1.715 11.797l24.77 45.976a9.997 9.997 0 0013.546 4.063c4.863-2.621 6.68-8.688 4.063-13.547l-21.25-39.442 45.55-45.773h42.352l45.555 45.773-21.25 39.442c-2.621 4.86-.805 10.926 4.058 13.547a9.953 9.953 0 004.735 1.195 9.992 9.992 0 008.812-5.258l24.774-45.976a10.014 10.014 0 00-1.72-11.797zm-101.57-84.785a43.972 43.972 0 0015.328 2.746c5.39 0 10.632-.977 15.53-2.82v27.933H407.52zm-266.043-43.75L244.8 59.109c1.234 11.766 6.344 23.203 15.34 32.2 8.78 8.78 20.078 14.129 32.265 15.382L189.437 209.656c-6.234-23.148-24.667-41.344-47.96-47.222zM321.645 29.859c6.355 6.356 9.859 14.805 9.859 23.793 0 8.387-3.05 16.305-8.621 22.493-.426.304-.836.64-1.219 1.023-6.328 6.328-14.742 9.812-23.691 9.812-8.946 0-17.36-3.484-23.688-9.812-13.062-13.063-13.062-34.32 0-47.383.29-.289.55-.594.797-.91 6.227-5.73 14.254-8.875 22.77-8.875 8.988 0 17.437 3.5 23.793 9.86zM125.203 180.414c25.652 0 46.524 20.867 46.524 46.524 0 25.648-20.872 46.519-46.524 46.519s-46.52-20.871-46.52-46.52c0-25.656 20.868-46.523 46.52-46.523zm105.082 295.559H20v-69c0-8.27 6.73-15 15-15h180.285c8.274 0 15 6.73 15 15zm-184.894-104L70.277 264.41c11.993 17.524 32.137 29.047 54.926 29.047 22.793 0 42.938-11.527 54.93-29.05l24.887 107.566zm290.394-280.38c9.008-9.007 14.125-20.445 15.375-32.218l88.637 88.633c9.348 9.347 9.348 24.555 0 33.898-4.527 4.528-10.547 7.024-16.95 7.024s-12.421-2.496-16.949-7.024l-80.21-80.21zm0 0"></path><path d="M125.2 236.934c2.64 0 5.21-1.07 7.07-2.93a10.023 10.023 0 002.93-7.07 10.03 10.03 0 00-2.93-7.07 10.059 10.059 0 00-7.07-2.93c-2.63 0-5.212 1.07-7.071 2.93s-2.93 4.44-2.93 7.07c0 2.632 1.07 5.21 2.93 7.07a10.087 10.087 0 007.07 2.93zm0 0M290.898 60.543a10.03 10.03 0 007.07 2.93c2.641 0 5.212-1.059 7.071-2.93a10.03 10.03 0 002.938-7.07c0-2.63-1.067-5.207-2.938-7.067a10.046 10.046 0 00-7.07-2.933c-2.63 0-5.211 1.07-7.07 2.933a10.07 10.07 0 00-2.93 7.067c0 2.632 1.07 5.21 2.93 7.07zm0 0M147.313 423.973h-44.336c-5.524 0-10 4.48-10 10 0 5.523 4.476 10 10 10h44.335c5.524 0 10-4.477 10-10 0-5.52-4.476-10-10-10zm0 0M56.16 423.973c-2.64 0-5.21 1.07-7.082 2.933a10.06 10.06 0 00-2.918 7.067c0 2.632 1.059 5.21 2.918 7.07a10.09 10.09 0 007.082 2.93c2.63 0 5.211-1.067 7.07-2.93a10.073 10.073 0 002.93-7.07 10.07 10.07 0 00-2.93-7.067 10.067 10.067 0 00-7.07-2.933zm0 0M194.129 423.973c-2.629 0-5.207 1.07-7.07 2.933a10.07 10.07 0 00-2.93 7.067c0 2.632 1.07 5.21 2.93 7.07a10.07 10.07 0 007.07 2.93c2.633 0 5.21-1.067 7.07-2.93a10.073 10.073 0 002.93-7.07 10.07 10.07 0 00-2.93-7.067 10.06 10.06 0 00-7.07-2.933zm0 0M422.8 175.004c2.641 0 5.212-1.07 7.071-2.93s2.93-4.441 2.93-7.07-1.07-5.211-2.93-7.07-4.434-2.93-7.07-2.93c-2.63 0-5.211 1.07-7.07 2.93s-2.93 4.441-2.93 7.07 1.07 5.21 2.93 7.07 4.44 2.93 7.07 2.93zm0 0M456.82 475.973c-2.64 0-5.21 1.07-7.07 2.933a10.02 10.02 0 00-2.93 7.067c0 2.632 1.059 5.21 2.93 7.07a10.056 10.056 0 007.07 2.93 10.07 10.07 0 007.07-2.93 10.073 10.073 0 002.93-7.07 10.07 10.07 0 00-2.93-7.067 10.074 10.074 0 00-7.07-2.933zm0 0"></path></svg> 