<svg xmlns="http://www.w3.org/2000/svg" viewBox="-108 0 638 638.751"><path d="M421.79 318.191a32.03 32.03 0 00-17.032-19.332l-139.684-64.648a53.328 53.328 0 00-26.617-46.016l13.84-153.386C253.883 17.246 240.93 1.715 223.363.133c-.957-.09-1.91-.133-2.867-.133h-17.309c-17.64.004-31.933 14.309-31.93 31.945 0 .961.044 1.914.134 2.864l13.836 153.421a53.321 53.321 0 00-26.614 45.98L18.93 298.86c-16.016 7.398-22.996 26.374-15.606 42.386.414.89.867 1.766 1.36 2.613l8.656 14.989a31.944 31.944 0 0020.789 15.226c2.246.496 4.535.746 6.836.746 6.601 0 13.043-2.039 18.441-5.836l119.668-84.316-20.46 342.797c-.352 5.87 4.116 10.91 9.988 11.265.218.016.437.02.66.02h85.164c5.879.012 10.652-4.746 10.664-10.629 0-.219-.008-.437-.016-.656L244.63 284.668l119.676 84.316a32.035 32.035 0 0018.433 5.836c2.301 0 4.59-.254 6.84-.746a31.954 31.954 0 0020.79-15.226l8.652-14.989a32.04 32.04 0 002.77-25.668zM195.315 24.75a10.526 10.526 0 017.871-3.457h17.31c5.878-.027 10.663 4.719 10.687 10.602 0 .332-.012.668-.043 1l-13.453 148.414a51.95 51.95 0 00-11.711 0L192.574 32.895a10.667 10.667 0 012.742-8.145zm5.157 179.738a30.384 30.384 0 0119.011-1.066c1.332.305 2.641.7 3.918 1.168a31.856 31.856 0 0120.375 29.62 31.815 31.815 0 01-.394 4.716c0 .11-.094.183-.117.289a30.918 30.918 0 01-3.743 10.965c-.09.136-.203.254-.289.39a30.28 30.28 0 01-7.312 8.348c-.09.062-.11.172-.195.234a41.994 41.994 0 01-3.883 2.676 31.753 31.753 0 01-31.844 0 39.476 39.476 0 01-4.012-2.715c-.078-.062-.097-.172-.18-.234a30.354 30.354 0 01-7.644-8.7 30.76 30.76 0 01-3.77-10.964c0-.117-.105-.203-.124-.313a34.356 34.356 0 01-.368-4.691 31.931 31.931 0 0120.57-29.723zM47.176 351.535a10.366 10.366 0 01-8.438 1.703 10.53 10.53 0 01-6.918-5.078l-8.695-14.945c-2.945-5.094-1.203-11.602 3.89-14.547.278-.16.563-.305.856-.441l135.2-62.579c.69 1.586 1.5 3.141 2.355 4.672.105.196.195.395.297.575a49.527 49.527 0 003.195 4.87zm133.39 265.926l19.746-331.313c.97.215 1.95.332 2.93.493.754.129 1.485.273 2.246.37 1.809.22 3.625.337 5.45.368.304 0 .609.062.906.062h.87a54.111 54.111 0 005.505-.375c.699-.082 1.406-.234 2.129-.351 1.062-.172 2.03-.29 3.043-.512l19.73 331.258zm219.996-284.246l-8.656 14.902a10.53 10.53 0 01-6.922 5.078 10.353 10.353 0 01-8.43-1.699L254.724 265.72a50.547 50.547 0 003.191-4.895c.098-.148.152-.316.234-.469a52.418 52.418 0 002.399-4.746l135.2 62.57c5.335 2.473 7.66 8.798 5.194 14.134a9.93 9.93 0 01-.445.859zm0 0"></path></svg> 