<svg xmlns="http://www.w3.org/2000/svg" viewBox="0 0 512 512"><path d="M373.333 106.667h-32a41.591 41.591 0 00-2.447 0c-22.888.676-40.896 19.778-40.22 42.667v53.333H320v-53.333a20.171 20.171 0 010-2.602c.718-11.064 10.27-19.45 21.333-18.732h32c5.891 0 10.667 4.776 10.667 10.667v147.456c-2.613 6.699-10.901 23.211-21.333 23.211H320v21.333h42.667c28.213 0 40.779-35.275 42.123-39.296.361-1.087.545-2.225.544-3.371V138.667c-.001-17.673-14.328-32-32.001-32zM384 341.333v32c0 5.891-4.776 10.667-10.667 10.667H288v21.333h85.333c17.673 0 32-14.327 32-32v-32H384zM224 362.667v-64h-21.333v64c.056.866.056 1.735 0 2.602-.718 11.064-10.27 19.45-21.333 18.732h-42.667c-5.891 0-10.667-4.776-10.667-10.667V256h-21.333v117.333c0 17.673 14.327 32 32 32h42.667c.815.024 1.631.024 2.447 0 22.888-.675 40.895-19.778 40.219-42.666zM128 138.667c0-5.891 4.776-10.667 10.667-10.667h96v-21.333h-96c-17.673 0-32 14.327-32 32v10.667a41.591 41.591 0 000 2.447c.676 22.888 19.778 40.896 42.667 40.22H192v-21.333h-42.667c-.866.056-1.735.056-2.602 0-11.064-.718-19.45-10.27-18.732-21.333v-10.668z"></path><path d="M469.333 181.333c5.891 0 10.667-4.776 10.667-10.667V128c0-5.891-4.776-10.667-10.667-10.667H448c-.035-29.44-23.893-53.298-53.333-53.333V42.667C394.667 36.776 389.891 32 384 32h-42.667c-5.891 0-10.667 4.776-10.667 10.667V64H288V42.667C288 36.776 283.224 32 277.333 32h-42.667C228.776 32 224 36.776 224 42.667V64h-42.667V42.667c0-5.891-4.776-10.667-10.667-10.667H128c-5.891 0-10.667 4.776-10.667 10.667V64c-29.44.035-53.298 23.893-53.333 53.333H42.667C36.776 117.333 32 122.109 32 128v42.667c0 5.891 4.776 10.667 10.667 10.667H64V224H42.667C36.776 224 32 228.776 32 234.667v42.667C32 283.224 36.776 288 42.667 288H64v42.667H42.667c-5.891 0-10.667 4.776-10.667 10.667V384c0 5.891 4.776 10.667 10.667 10.667H64c.035 29.441 23.893 53.298 53.333 53.333v21.333c0 5.891 4.776 10.667 10.667 10.667h42.667c5.891 0 10.667-4.776 10.667-10.667V448H224v21.333c0 5.891 4.776 10.667 10.667 10.667h42.667c5.891 0 10.667-4.776 10.667-10.667V448h42.667v21.333c0 5.891 4.776 10.667 10.667 10.667H384c5.891 0 10.667-4.776 10.667-10.667V448c29.441-.035 53.298-23.893 53.333-53.333h21.333c5.891 0 10.667-4.776 10.667-10.667v-42.667c0-5.891-4.776-10.667-10.667-10.667H448V288h21.333c5.891 0 10.667-4.776 10.667-10.667v-42.667c0-5.891-4.776-10.667-10.667-10.667H448v-42.667h21.333zm-32 64h21.333v21.333h-21.333c-5.891 0-10.667 4.776-10.667 10.667v64c0 5.891 4.776 10.667 10.667 10.667h21.333v21.333h-21.333c-5.891 0-10.667 4.776-10.667 10.667v10.667c0 17.673-14.327 32-32 32H384c-5.891 0-10.667 4.776-10.667 10.667v21.333H352v-21.333c0-5.891-4.776-10.667-10.667-10.667h-64c-5.891 0-10.667 4.776-10.667 10.667v21.333h-21.333v-21.333c0-5.891-4.776-10.667-10.667-10.667h-64c-5.891 0-10.667 4.776-10.667 10.667v21.333h-21.333v-21.333c0-5.891-4.776-10.667-10.667-10.667h-10.667c-17.673 0-32-14.327-32-32V384c0-5.891-4.776-10.667-10.667-10.667H53.333V352h21.333c5.891 0 10.667-4.776 10.667-10.667v-64c0-5.891-4.776-10.667-10.667-10.667H53.333v-21.333h21.333c5.891 0 10.667-4.776 10.667-10.667v-64c0-5.891-4.776-10.667-10.667-10.667H53.333v-21.333h21.333c5.891 0 10.667-4.776 10.667-10.667v-10.667c0-17.673 14.327-32 32-32H128c5.891 0 10.667-4.776 10.667-10.667V53.333H160v21.333c0 5.891 4.776 10.667 10.667 10.667h64c5.891 0 10.667-4.776 10.667-10.667V53.333h21.333v21.333c0 5.891 4.776 10.667 10.667 10.667h64c5.891 0 10.667-4.776 10.667-10.667V53.333h21.333v21.333c0 5.891 4.776 10.667 10.667 10.667h10.667c17.673 0 32 14.327 32 32V128c0 5.891 4.776 10.667 10.667 10.667h21.333V160h-21.333c-5.891 0-10.667 4.776-10.667 10.667v64c-.001 5.891 4.774 10.666 10.665 10.666z"></path><path d="M138.667 0H160v42.667h-21.333zM245.333 0h21.333v42.667h-21.333zM352 0h21.333v42.667H352zM352 469.333h21.333V512H352zM245.333 469.333h21.333V512h-21.333zM138.667 469.333H160V512h-21.333zM0 352h42.667v21.333H0zM0 245.333h42.667v21.333H0zM0 138.667h42.667V160H0zM469.333 138.667H512V160h-42.667zM469.333 245.333H512v21.333h-42.667zM469.333 352H512v21.333h-42.667zM213.333 245.333c-17.673 0-32 14.327-32 32 0 17.673 14.327 32 32 32 17.673 0 32-14.327 32-32 0-17.673-14.327-32-32-32zm0 42.667c-5.891 0-10.667-4.776-10.667-10.667s4.776-10.667 10.667-10.667S224 271.442 224 277.333 219.224 288 213.333 288zM298.667 288c-17.673 0-32 14.327-32 32s14.327 32 32 32c17.673 0 32-14.327 32-32s-14.327-32-32-32zm0 42.667c-5.891 0-10.667-4.776-10.667-10.667s4.776-10.667 10.667-10.667 10.667 4.776 10.667 10.667-4.776 10.667-10.667 10.667zM213.333 149.333c-17.673 0-32 14.327-32 32 0 17.673 14.327 32 32 32 17.673 0 32-14.327 32-32 0-17.673-14.327-32-32-32zm0 42.667c-5.891 0-10.667-4.776-10.667-10.667s4.776-10.667 10.667-10.667S224 175.442 224 181.333 219.224 192 213.333 192zM309.333 192c-17.673 0-32 14.327-32 32s14.327 32 32 32c17.673 0 32-14.327 32-32s-14.327-32-32-32zm0 42.667c-5.891 0-10.667-4.776-10.667-10.667s4.776-10.667 10.667-10.667S320 218.109 320 224s-4.776 10.667-10.667 10.667zM106.667 213.333H128v21.333h-21.333zM256 106.667h21.333V128H256zM245.333 384h21.333v21.333h-21.333z"></path></svg> 