<svg xmlns="http://www.w3.org/2000/svg" height="875pt" version="1.1" viewBox="-58 0 875 875.9" width="875pt"><g><path d="M 744.851562 759 L 701.050781 759 L 701.050781 750.199219 C 701.050781 706.199219 694.648438 662.398438 681.949219 620.300781 L 587.550781 305.5 C 575.75 266.101562 569.648438 225.101562 569.75 183.898438 L 569.75 160.5 C 569.75 152.398438 563.25 145.898438 555.148438 145.898438 L 204.75 145.898438 C 196.648438 145.898438 190.148438 152.398438 190.148438 160.5 L 190.148438 183.898438 C 190.148438 225.101562 184.148438 266.101562 172.25 305.5 L 77.949219 620.398438 C 65.25 662.5 58.851562 706.300781 58.851562 750.300781 L 58.851562 759.101562 L 15.050781 759.101562 C 6.949219 759.101562 0.449219 765.601562 0.449219 773.699219 L 0.449219 861.300781 C 0.449219 869.398438 6.949219 875.898438 15.050781 875.898438 L 744.851562 875.898438 C 752.949219 875.898438 759.449219 869.398438 759.449219 861.300781 L 759.449219 773.699219 C 759.449219 765.601562 752.949219 759 744.851562 759 Z M 88.050781 750.300781 C 88.050781 709.101562 94.050781 668.101562 105.949219 628.699219 L 200.25 313.898438 C 212.949219 271.699219 219.351562 227.898438 219.351562 183.898438 L 219.351562 175.101562 L 540.449219 175.101562 L 540.449219 183.898438 C 540.449219 227.898438 546.851562 271.699219 559.550781 313.800781 L 653.949219 628.601562 C 665.851562 668 671.851562 709 671.851562 750.199219 L 671.851562 759 L 88.050781 759 Z M 730.25 846.601562 L 29.648438 846.601562 L 29.648438 788.199219 L 730.25 788.199219 Z M 730.25 846.601562 " style=" stroke:none;fill-rule:nonzero;fill:rgb(0%,0%,0%);fill-opacity:1;"></path><path d="M 379.949219 116.800781 C 388.050781 116.800781 394.550781 110.300781 394.550781 102.199219 L 394.550781 14.601562 C 394.550781 6.5 388.050781 0 379.949219 0 C 371.851562 0 365.351562 6.5 365.351562 14.601562 L 365.351562 102.199219 C 365.351562 110.199219 371.851562 116.800781 379.949219 116.800781 Z M 379.949219 116.800781 " style=" stroke:none;fill-rule:nonzero;fill:rgb(0%,0%,0%);fill-opacity:1;"></path><path d="M 467.550781 116.800781 C 475.648438 116.800781 482.148438 110.300781 482.148438 102.199219 L 482.148438 43.800781 C 482.148438 35.699219 475.648438 29.199219 467.550781 29.199219 C 459.449219 29.199219 452.949219 35.699219 452.949219 43.800781 L 452.949219 102.199219 C 452.949219 110.199219 459.449219 116.800781 467.550781 116.800781 Z M 467.550781 116.800781 " style=" stroke:none;fill-rule:nonzero;fill:rgb(0%,0%,0%);fill-opacity:1;"></path><path d="M 292.351562 116.800781 C 300.449219 116.800781 306.949219 110.300781 306.949219 102.199219 L 306.949219 43.800781 C 306.949219 35.699219 300.449219 29.199219 292.351562 29.199219 C 284.25 29.199219 277.75 35.699219 277.75 43.800781 L 277.75 102.199219 C 277.75 110.199219 284.351562 116.800781 292.351562 116.800781 Z M 292.351562 116.800781 " style=" stroke:none;fill-rule:nonzero;fill:rgb(0%,0%,0%);fill-opacity:1;"></path><path d="M 379.949219 350.300781 C 275.148438 350.300781 190.148438 435.300781 190.148438 540.101562 C 190.148438 644.898438 275.148438 729.898438 379.949219 729.898438 C 484.75 729.898438 569.75 644.898438 569.75 540.101562 C 569.550781 435.300781 484.648438 350.398438 379.949219 350.300781 Z M 379.949219 700.601562 C 291.25 700.601562 219.351562 628.699219 219.351562 540 C 219.351562 451.300781 291.25 379.5 379.949219 379.5 C 468.648438 379.5 540.550781 451.398438 540.550781 540.101562 C 540.449219 628.699219 468.550781 700.5 379.949219 700.601562 Z M 379.949219 700.601562 " style=" stroke:none;fill-rule:nonzero;fill:rgb(0%,0%,0%);fill-opacity:1;"></path><path d="M 481.050781 481.699219 C 470.851562 464 456.148438 449.300781 438.449219 439.101562 C 438.351562 439 438.351562 439 438.25 438.898438 C 434.851562 436.898438 430.851562 436.398438 427.050781 437.398438 C 426.550781 437.5 426.25 437.898438 425.75 438 C 422.75 438.898438 420.25 440.800781 418.75 443.5 C 418.550781 443.699219 418.351562 443.898438 418.148438 444.101562 L 387.949219 496.898438 C 382.75 495.800781 377.25 495.800781 372.050781 496.898438 L 341.648438 444.199219 C 341.550781 444 341.351562 443.898438 341.25 443.800781 C 340.351562 442.300781 339.148438 441 337.75 439.898438 C 337.550781 439.699219 337.148438 439.699219 336.949219 439.5 C 335.648438 438.601562 334.25 437.898438 332.75 437.5 C 331.648438 437.300781 330.648438 437.199219 329.550781 437.300781 C 328.75 437.199219 328.050781 437.101562 327.25 437.101562 C 325.25 437.300781 323.351562 437.898438 321.648438 438.898438 C 321.550781 439 321.550781 439 321.449219 439.101562 C 285.351562 459.800781 263.148438 498.199219 263.050781 539.898438 L 263.050781 540.101562 C 263.050781 544 264.648438 547.699219 267.449219 550.398438 C 267.949219 550.800781 268.449219 551.101562 268.949219 551.398438 C 269.949219 552.300781 270.949219 553 272.148438 553.5 C 273.949219 554.199219 275.851562 554.601562 277.75 554.601562 L 338.75 554.601562 C 340.550781 559.601562 343.25 564.199219 346.648438 568.300781 L 316.148438 621.101562 C 316.050781 621.300781 316.050781 621.5 315.949219 621.699219 C 315.148438 623.199219 314.550781 624.800781 314.351562 626.5 C 314.148438 628.199219 314.25 630 314.75 631.699219 C 314.75 631.800781 314.75 631.898438 314.75 632.101562 C 315.75 635.898438 318.148438 639.101562 321.550781 641 C 321.648438 641.101562 321.851562 641.101562 321.949219 641.199219 C 357.851562 661.800781 401.949219 661.800781 437.851562 641.199219 C 437.949219 641.199219 438.148438 641.101562 438.25 641 C 441.648438 639 444.050781 635.800781 445.050781 632.101562 C 445.050781 632 445.050781 631.898438 445.050781 631.699219 C 445.449219 630 445.550781 628.199219 445.449219 626.5 C 445.148438 624.800781 444.648438 623.199219 443.851562 621.699219 C 443.75 621.5 443.75 621.300781 443.648438 621.101562 L 413.148438 568.300781 C 416.550781 564.300781 419.25 559.601562 420.949219 554.601562 L 482.050781 554.601562 C 484.050781 554.601562 485.949219 554.199219 487.75 553.398438 C 488.949219 552.800781 489.949219 552.101562 490.949219 551.199219 C 491.449219 550.898438 491.949219 550.601562 492.449219 550.300781 C 495.148438 547.601562 496.75 543.800781 496.648438 540 L 496.648438 539.800781 C 496.75 519.398438 491.351562 499.398438 481.050781 481.699219 Z M 466.148438 525.5 L 421.050781 525.5 C 419.25 520.5 416.550781 515.898438 413.148438 511.800781 L 435.75 472.699219 C 451.949219 486 462.851562 504.699219 466.148438 525.5 Z M 394.550781 540.101562 C 394.550781 548.199219 388.050781 554.699219 379.949219 554.699219 C 371.851562 554.699219 365.351562 548.199219 365.351562 540.101562 C 365.351562 532 371.851562 525.5 379.949219 525.5 C 388.050781 525.5 394.550781 532 394.550781 540.101562 Z M 304.050781 496.300781 C 309.25 487.300781 316.050781 479.300781 324.148438 472.699219 L 346.75 511.800781 C 343.351562 515.800781 340.648438 520.5 338.851562 525.5 L 293.75 525.5 C 295.351562 515.199219 298.851562 505.300781 304.050781 496.300781 Z M 349.449219 622 L 371.949219 583 C 377.148438 584.101562 382.648438 584.101562 387.851562 583 L 410.351562 622 C 390.75 629.300781 369.148438 629.300781 349.449219 622 Z M 349.449219 622 " style=" stroke:none;fill-rule:nonzero;fill:rgb(0%,0%,0%);fill-opacity:1;"></path></g></svg> 