<svg xmlns="http://www.w3.org/2000/svg" height="640pt" version="1.1" viewBox="-53 0 640 640" width="640pt"><g><path d="M 501.332031 106.664062 L 522.664062 106.664062 C 528.558594 106.664062 533.335938 101.890625 533.335938 96 L 533.335938 42.664062 C 533.335938 36.777344 528.558594 32 522.664062 32 L 160 32 L 160 10.667969 C 160 4.773438 155.226562 0 149.332031 0 L 64 0 C 58.109375 0 53.328125 4.773438 53.328125 10.667969 L 53.328125 32 L 10.667969 32 C 4.773438 32 0 36.777344 0 42.664062 L 0 96 C 0 101.890625 4.773438 106.664062 10.667969 106.664062 L 32 106.664062 L 32 565.332031 L 10.667969 565.332031 C 4.773438 565.332031 0 570.109375 0 576 L 0 629.332031 C 0 635.226562 4.773438 640 10.667969 640 L 522.664062 640 C 528.558594 640 533.335938 635.226562 533.335938 629.332031 L 533.335938 576 C 533.335938 570.109375 528.558594 565.332031 522.664062 565.332031 L 501.332031 565.332031 Z M 53.335938 213.335938 L 217.964844 213.335938 C 217.207031 215.542969 216.53125 217.597656 215.96875 219.59375 L 215.894531 219.847656 C 215.148438 222.453125 214.613281 224.800781 214.199219 227.007812 C 214.09375 227.582031 213.992188 228.160156 213.910156 228.714844 C 213.570312 230.679688 213.375 232.671875 213.335938 234.667969 C 213.335938 264.121094 237.210938 288 266.671875 288 C 296.125 288 320 264.121094 320 234.667969 C 319.960938 232.671875 319.769531 230.679688 319.429688 228.714844 C 319.339844 228.160156 319.242188 227.582031 319.140625 227.007812 C 318.710938 224.789062 318.1875 222.441406 317.441406 219.828125 L 317.378906 219.605469 C 316.800781 217.632812 316.140625 215.542969 315.375 213.335938 L 480.003906 213.335938 L 480.003906 512 L 53.335938 512 Z M 289.929688 206.933594 C 294.433594 215.601562 297.390625 224.984375 298.667969 234.667969 C 298.667969 252.339844 284.339844 266.664062 266.664062 266.664062 C 248.992188 266.664062 234.667969 252.339844 234.667969 234.667969 C 234.683594 233.757812 234.765625 232.851562 234.921875 231.957031 C 235.0625 231.101562 235.296875 229.996094 235.59375 228.757812 C 237.582031 221.257812 240.195312 213.941406 243.402344 206.878906 C 250.304688 190.878906 259.746094 172.9375 266.664062 160.351562 C 273.589844 172.929688 283.042969 190.867188 289.929688 206.933594 Z M 74.667969 21.332031 L 138.667969 21.332031 L 138.667969 32 L 74.667969 32 Z M 21.332031 53.335938 L 512 53.335938 L 512 85.332031 L 21.332031 85.332031 Z M 480 106.664062 L 480 192 L 306.664062 192 C 294.015625 164.171875 276.648438 134.59375 275.859375 133.246094 C 272.414062 128.167969 265.5 126.851562 260.421875 130.296875 C 259.261719 131.089844 258.261719 132.089844 257.46875 133.246094 C 256.683594 134.59375 239.339844 164.179688 226.664062 192 L 53.335938 192 L 53.335938 106.664062 Z M 512 618.667969 L 21.332031 618.667969 L 21.332031 586.664062 L 512 586.664062 Z M 53.335938 565.332031 L 53.335938 533.335938 L 480 533.335938 L 480 565.332031 Z M 53.335938 565.332031 " style=" stroke:none;fill-rule:nonzero;fill:rgb(0%,0%,0%);fill-opacity:1;"></path><path d="M 170.664062 362.664062 C 141.257812 362.664062 117.335938 391.371094 117.335938 426.664062 C 117.335938 461.960938 141.257812 490.667969 170.664062 490.667969 C 200.074219 490.667969 224 461.960938 224 426.664062 C 224 391.371094 200.074219 362.664062 170.664062 362.664062 Z M 170.664062 469.332031 C 153.023438 469.332031 138.667969 450.195312 138.667969 426.664062 C 138.667969 403.132812 153.023438 384 170.664062 384 C 188.3125 384 202.664062 403.132812 202.664062 426.664062 C 202.664062 450.195312 188.3125 469.332031 170.664062 469.332031 Z M 170.664062 469.332031 " style=" stroke:none;fill-rule:nonzero;fill:rgb(0%,0%,0%);fill-opacity:1;"></path><path d="M 266.664062 362.664062 L 288 362.664062 L 288 490.667969 L 266.664062 490.667969 Z M 266.664062 362.664062 " style=" stroke:none;fill-rule:nonzero;fill:rgb(0%,0%,0%);fill-opacity:1;"></path><path d="M 351.996094 362.664062 L 330.667969 362.664062 L 330.667969 490.664062 L 416 490.664062 L 416 469.332031 L 351.996094 469.332031 Z M 351.996094 362.664062 " style=" stroke:none;fill-rule:nonzero;fill:rgb(0%,0%,0%);fill-opacity:1;"></path></g></svg> 