<svg xmlns="http://www.w3.org/2000/svg" viewBox="-85 0 640 640"><path d="M234.668 0C120.906 0 0 29.867 0 85.332v469.336C0 610.133 120.906 640 234.668 640s234.664-29.867 234.664-85.332V85.332C469.332 29.867 348.43 0 234.668 0zM448 282.582v122.75c0 30.219-91.234 64-213.332 64-122.106 0-213.336-33.781-213.336-64v-122.75c.277.211.598.418.875.625a102.852 102.852 0 006.105 4.367c.614.403 1.235.828 1.875 1.235 2.516 1.613 5.149 3.199 7.934 4.691.43.234.879.45 1.3.684a182.422 182.422 0 007.774 3.87c.782.364 1.559.735 2.352 1.067a222.128 222.128 0 009.598 4.098l1.343.5c3.024 1.172 6.137 2.3 9.325 3.39l2.703.93a324.963 324.963 0 0011.07 3.465l1.332.375c3.465.992 7.02 1.941 10.668 2.867l3 .746c4.008.996 8.078 1.953 12.238 2.844l1.215.254c3.856.808 7.781 1.582 11.734 2.312l3.204.602c4.332.766 8.703 1.5 13.148 2.129l1.07.152c4.16.621 8.356 1.195 12.586 1.738l3.5.438c4.547.555 9.121 1.066 13.73 1.523l.723.063c4.414.43 8.852.812 13.309 1.144l3.594.27c4.683.316 9.355.613 14.062.851h.508c4.582.211 9.16.383 13.73.5l3.555.086c4.746.102 9.469.172 14.196.172 4.726 0 9.453-.07 14.199-.172l3.55-.086c4.579-.125 9.157-.292 13.731-.5h.512c4.703-.234 9.375-.535 14.058-.851l3.594-.27c4.457-.34 8.895-.722 13.309-1.144l.726-.063c4.61-.457 9.188-.968 13.727-1.523l3.5-.438a769.996 769.996 0 0012.59-1.738l1.066-.152c4.445-.68 8.82-1.414 13.152-2.13l3.2-.6c3.968-.731 7.894-1.505 11.734-2.313l1.215-.254c4.16-.89 8.23-1.848 12.246-2.844l2.996-.746a459.456 459.456 0 0010.664-2.867l1.332-.375c3.79-1.067 7.469-2.27 11.078-3.465l2.695-.93c3.204-1.062 6.301-2.218 9.325-3.39l1.343-.5a195.254 195.254 0 009.598-4.098c.793-.351 1.57-.723 2.352-1.066a182.422 182.422 0 007.773-3.871c.43-.235.871-.45 1.3-.684a124.98 124.98 0 007.935-4.691c.64-.407 1.261-.832 1.875-1.235a105.477 105.477 0 006.105-4.367c.234-.207.55-.414.832-.625zm0-160v122.75c0 30.219-91.234 64-213.332 64-122.106 0-213.336-33.781-213.336-64v-122.75c.277.211.598.418.875.625a102.852 102.852 0 006.105 4.367c.614.403 1.235.828 1.875 1.235 2.516 1.613 5.149 3.203 7.934 4.691.43.234.879.45 1.3.684a177.91 177.91 0 007.774 3.87c.782.364 1.559.739 2.352 1.067 3.105 1.41 6.305 2.79 9.598 4.098l1.343.5a246.396 246.396 0 009.325 3.394l2.703.93a333.981 333.981 0 0011.07 3.465l1.332.37c3.465.993 7.02 1.946 10.668 2.872l3 .75c4.008.988 8.078 1.945 12.238 2.836l1.215.254c3.856.816 7.781 1.582 11.734 2.312l3.204.602c4.332.766 8.703 1.504 13.148 2.133l1.07.148c4.16.621 8.356 1.2 12.586 1.742l3.5.434c4.547.559 9.121 1.066 13.73 1.531l.723.063c4.414.422 8.852.804 13.309 1.136l3.594.27c4.683.32 9.355.617 14.062.851h.508c4.582.22 9.16.383 13.73.504l3.555.082c4.746.102 9.469.172 14.196.172 4.726 0 9.453-.07 14.199-.172l3.55-.082a804.54 804.54 0 0013.731-.504h.512c4.703-.234 9.375-.53 14.058-.851l3.594-.27c4.457-.336 8.895-.718 13.309-1.136l.726-.063c4.61-.46 9.188-.969 13.727-1.531l3.5-.434a630.39 630.39 0 0012.59-1.742l1.066-.148c4.445-.684 8.82-1.418 13.152-2.133l3.2-.602c3.968-.73 7.894-1.496 11.734-2.312l1.215-.254c4.16-.883 8.23-1.848 12.246-2.836l2.996-.75a459.405 459.405 0 0010.664-2.871l1.332-.371c3.79-1.07 7.469-2.274 11.078-3.465l2.695-.93c3.204-1.066 6.301-2.222 9.325-3.394l1.343-.5a191.555 191.555 0 009.598-4.098c.793-.351 1.57-.723 2.352-1.066a182.422 182.422 0 007.773-3.871c.43-.235.871-.45 1.3-.684a124.98 124.98 0 007.935-4.691c.64-.407 1.261-.832 1.875-1.235a105.477 105.477 0 006.105-4.367c.234-.207.55-.414.832-.625zM234.668 21.332c122.098 0 213.332 33.781 213.332 64s-91.234 64.004-213.332 64.004c-122.106 0-213.336-33.785-213.336-64.004 0-30.215 91.23-64 213.336-64zM448 554.668c0 30.219-91.234 64-213.332 64-122.106 0-213.336-33.785-213.336-64V442.582c.277.211.598.418.875.625a102.852 102.852 0 006.105 4.367c.614.403 1.235.828 1.875 1.235 2.516 1.613 5.149 3.203 7.934 4.691.43.234.879.45 1.3.684a182.422 182.422 0 007.774 3.87c.782.364 1.559.739 2.352 1.067 3.105 1.41 6.305 2.79 9.598 4.098l1.343.5a246.396 246.396 0 009.325 3.394l2.703.93a333.981 333.981 0 0011.07 3.465l1.332.37c3.465.993 7.02 1.946 10.668 2.872l3 .75c4.008.988 8.078 1.945 12.238 2.836l1.215.254c3.856.816 7.781 1.582 11.734 2.312l3.204.602c4.332.766 8.703 1.504 13.148 2.133l1.07.148c4.16.621 8.356 1.2 12.586 1.742l3.5.434c4.547.559 9.121 1.066 13.73 1.531l.723.063c4.414.422 8.852.804 13.309 1.136l3.594.27c4.683.32 9.355.617 14.062.851h.508c4.582.22 9.16.383 13.73.504l3.555.082c4.746.102 9.469.172 14.196.172 4.726 0 9.453-.07 14.199-.172l3.55-.082a804.54 804.54 0 0013.731-.503h.512c4.703-.235 9.375-.532 14.058-.852l3.594-.27c4.457-.336 8.895-.718 13.309-1.136l.726-.063c4.61-.465 9.188-.972 13.727-1.531l3.5-.434a729.518 729.518 0 0012.59-1.742l1.066-.148c4.445-.684 8.82-1.418 13.152-2.133l3.2-.602c3.968-.73 7.894-1.496 11.734-2.312l1.215-.254c4.16-.883 8.23-1.848 12.246-2.836l2.996-.75a459.405 459.405 0 0010.664-2.871l1.332-.371c3.79-1.07 7.469-2.274 11.078-3.465l2.695-.93c3.204-1.066 6.301-2.222 9.325-3.394l1.343-.5a191.555 191.555 0 009.598-4.098c.793-.351 1.57-.723 2.352-1.066a182.422 182.422 0 007.773-3.871c.43-.235.871-.45 1.3-.684a124.98 124.98 0 007.935-4.691c.64-.407 1.261-.832 1.875-1.235a105.477 105.477 0 006.105-4.367c.277-.207.598-.414.875-.625zm0 0"></path><path d="M117.336 117.336c30.406 0 53.328-13.762 53.328-32.004 0-18.238-22.922-31.996-53.328-31.996C86.922 53.336 64 67.094 64 85.332c0 18.242 22.922 32.004 53.336 32.004zm0-42.668c20.648 0 31.996 8.008 31.996 10.664 0 2.656-11.348 10.668-31.996 10.668-20.656 0-32.004-8.012-32.004-10.668 0-2.656 11.352-10.664 32.004-10.664zm0 0"></path></svg> 