<svg xmlns="http://www.w3.org/2000/svg" viewBox="0 0 512.001 512.001"><path d="M255.5 246c-5.52 0-10 4.48-10 10s4.48 10 10 10 10-4.48 10-10-4.479-10-10-10z"></path><path d="M435.502 306c-13.036 0-24.152 8.361-28.28 20h-69.36l-37.889-18.944c-.071-.035-.144-.061-.215-.094-.191-.09-.384-.177-.581-.255-.126-.05-.253-.094-.38-.139a9.495 9.495 0 00-1.007-.294c-.151-.035-.302-.07-.456-.098a10.267 10.267 0 00-.576-.088 9.537 9.537 0 00-.383-.043 10.132 10.132 0 00-.651-.033c-.075-.002-.149-.011-.224-.011h-40c-27.57 0-50-22.43-50-50 0-13.351 5.201-25.91 14.637-35.355C229.591 211.201 242.149 206 255.5 206h39.972l.036.002c.145 0 .291-.018.437-.025.206-.009.414-.014.617-.035.143-.015.285-.044.427-.065.221-.033.441-.067.656-.114.127-.028.252-.064.378-.097.237-.062.471-.129.7-.207a10.153 10.153 0 001.072-.439c.058-.028.118-.047.176-.075L337.86 186h69.36c4.128 11.639 15.243 20 28.28 20 16.542 0 30-13.458 30-30s-13.458-30-30-30c-13.036 0-24.152 8.361-28.28 20H335.5a9.987 9.987 0 00-4.472 1.056L293.141 186H255.5c-18.689 0-36.268 7.279-49.505 20.502C192.779 219.732 185.5 237.311 185.5 256c0 38.598 31.402 70 70 70h37.64l37.889 18.944a10 10 0 004.472 1.056h71.72c4.128 11.639 15.243 20 28.28 20 16.542 0 30-13.458 30-30s-13.457-30-29.999-30zm-.002-140c5.514 0 10 4.486 10 10s-4.486 10-10 10-10-4.486-10-10 4.487-10 10-10zm0 180c-5.514 0-10-4.486-10-10s4.486-10 10-10 10 4.486 10 10-4.485 10-10 10z"></path><path d="M255.5 126h20c5.522 0 10-4.477 10-10V10c0-5.523-4.478-10-10-10h-40a10 10 0 00-9.251 6.204l-17.833 43.463c-22.106 5.071-43.04 13.652-62.381 25.567l-32.879-19.729a9.997 9.997 0 00-12.216 1.503l-42.43 42.43a9.998 9.998 0 00-1.503 12.216l19.729 32.879c-11.71 19.008-20.2 39.556-25.303 61.241l-43.078 9.458A10.002 10.002 0 00.5 225v60c0 4.695 3.267 8.758 7.853 9.767l43.51 9.567c5.223 21.514 13.708 41.792 25.288 60.436l-20.146 33.576a10 10 0 001.504 12.216l42.43 42.43a10 10 0 0012.215 1.504l34.11-20.464c18.901 11.471 39.254 19.774 60.655 24.744l18.264 46.857a10 10 0 009.317 6.368h40c5.522 0 10-4.478 10-10V396c0-5.523-4.478-10-10-10h-20c-71.682 0-130-58.318-130-130s58.318-130 130-130zm-150 130c0 82.71 67.29 150 150 150h10v86h-23.165l-17.728-45.482a10.002 10.002 0 00-7.313-6.165c-22.952-4.697-44.646-13.594-64.476-26.445a10.004 10.004 0 00-10.583-.183l-32.675 19.604-31.388-31.389 19.323-32.205a10 10 0 00-.246-10.679c-13.134-19.767-22.304-41.699-27.254-65.188a10 10 0 00-7.638-7.704L20.5 276.96v-43.917l41.475-9.105a10.002 10.002 0 007.656-7.783c4.781-23.603 13.937-45.797 27.212-65.968a10 10 0 00.222-10.643L78.172 108.06l31.387-31.387 31.485 18.893a9.995 9.995 0 0010.643-.222c20.17-13.275 42.365-22.431 65.968-27.212a9.999 9.999 0 007.266-6.005L242.206 20H265.5v86h-10c-82.709 0-150 67.29-150 150zM481.5 226c-13.036 0-24.152 8.361-28.28 20H295.5c-5.522 0-10 4.477-10 10s4.478 10 10 10h157.72c4.128 11.639 15.243 20 28.28 20 16.542 0 30-13.458 30-30s-13.458-30-30-30zm0 40c-5.514 0-10-4.486-10-10s4.486-10 10-10 10 4.486 10 10-4.485 10-10 10z"></path><path d="M375.501 386c-7.032 0-13.777 2.523-19.085 6.888l-75.771-45.463A9.993 9.993 0 00275.5 346h-20c-49.626 0-90-40.374-90-90s40.374-90 90-90h20c1.812 0 3.591-.493 5.145-1.425l75.772-45.463c5.309 4.367 12.053 6.888 19.084 6.888 16.542 0 30-13.458 30-30s-13.458-30-30-30-30 13.458-30 30c0 2.017.205 4.019.603 5.977L272.731 146H255.5c-60.654 0-110 49.346-110 110s49.346 110 110 110h17.23l73.373 44.023A30.006 30.006 0 00345.5 416c0 16.542 13.458 30 30 30s30-13.458 30-30-13.457-30-29.999-30zM375.5 86c5.514 0 10 4.486 10 10s-4.486 10-10 10c-3.544 0-6.746-1.812-8.575-4.854v-.001l-.006-.009A9.977 9.977 0 01365.5 96c0-5.514 4.487-10 10-10zm0 340c-5.514 0-10-4.486-10-10 0-1.815.491-3.591 1.425-5.145l.001-.002A9.915 9.915 0 01375.5 406c5.514 0 10 4.486 10 10s-4.485 10-10 10z"></path></svg> 