<svg xmlns="http://www.w3.org/2000/svg" height="640pt" version="1.1" viewBox="0 0 640.00123 640" width="640pt"><g><path d="M 597.257812 276.054688 C 596.621094 270.773438 592.1875 266.769531 586.867188 266.664062 L 10.871094 256 C 7.828125 255.882812 4.898438 257.125 2.867188 259.394531 C 0.800781 261.605469 -0.222656 264.589844 0.0390625 267.609375 L 32.042969 630.273438 C 32.53125 635.777344 37.140625 640 42.667969 640 L 629.332031 640 C 635.226562 640 640 635.226562 640 629.335938 C 640 628.90625 639.976562 628.476562 639.921875 628.050781 Z M 52.4375 618.667969 L 22.335938 277.558594 L 577.195312 287.816406 L 617.300781 618.667969 Z M 52.4375 618.667969 " style=" stroke:none;fill-rule:nonzero;fill:rgb(0%,0%,0%);fill-opacity:1;"></path><path d="M 74.664062 426.664062 L 192 426.664062 C 197.890625 426.664062 202.667969 421.890625 202.664062 415.996094 C 202.664062 415.558594 202.636719 415.117188 202.578125 414.679688 L 191.914062 329.347656 C 191.246094 324.007812 186.710938 320 181.335938 320 L 64 320 C 58.105469 320 53.332031 324.78125 53.335938 330.667969 C 53.335938 331.113281 53.359375 331.554688 53.417969 331.988281 L 64.082031 417.324219 C 64.753906 422.660156 69.289062 426.664062 74.664062 426.664062 Z M 171.914062 341.332031 L 179.914062 405.332031 L 84.082031 405.332031 L 76.085938 341.332031 Z M 171.914062 341.332031 " style=" stroke:none;fill-rule:nonzero;fill:rgb(0%,0%,0%);fill-opacity:1;"></path><path d="M 202.667969 480 L 74.664062 480 C 68.777344 480.003906 64 484.78125 64 490.667969 C 64 491.113281 64.03125 491.554688 64.082031 491.992188 L 74.753906 577.324219 C 75.417969 582.660156 79.953125 586.664062 85.332031 586.671875 L 213.332031 586.671875 C 219.226562 586.664062 224 581.890625 223.996094 575.996094 C 223.996094 575.558594 223.972656 575.117188 223.914062 574.679688 L 213.25 489.347656 C 212.578125 484.007812 208.042969 480 202.667969 480 Z M 94.753906 565.332031 L 86.753906 501.332031 L 193.25 501.332031 L 201.246094 565.332031 Z M 94.753906 565.332031 " style=" stroke:none;fill-rule:nonzero;fill:rgb(0%,0%,0%);fill-opacity:1;"></path><path d="M 381.335938 423.0625 C 383.355469 420.765625 384.296875 417.714844 383.914062 414.679688 L 373.25 329.347656 C 372.578125 324.007812 368.042969 320 362.667969 320 L 245.332031 320 C 239.441406 320 234.667969 324.78125 234.667969 330.667969 C 234.667969 331.113281 234.699219 331.554688 234.753906 331.988281 L 245.417969 417.324219 C 246.085938 422.660156 250.621094 426.664062 255.996094 426.664062 L 373.332031 426.664062 C 376.394531 426.671875 379.308594 425.355469 381.335938 423.0625 Z M 265.417969 405.332031 L 257.417969 341.332031 L 353.25 341.332031 L 361.246094 405.332031 Z M 265.417969 405.332031 " style=" stroke:none;fill-rule:nonzero;fill:rgb(0%,0%,0%);fill-opacity:1;"></path><path d="M 384 480 L 266.667969 480 C 260.773438 480.003906 256.003906 484.78125 256.003906 490.667969 C 256.003906 491.113281 256.03125 491.554688 256.085938 491.992188 L 266.753906 577.324219 C 267.417969 582.660156 271.953125 586.664062 277.332031 586.671875 L 394.664062 586.671875 C 400.558594 586.664062 405.332031 581.890625 405.328125 575.996094 C 405.328125 575.558594 405.304688 575.117188 405.246094 574.679688 L 394.582031 489.347656 C 393.914062 484.007812 389.375 480 384 480 Z M 286.75 565.332031 L 278.75 501.332031 L 374.582031 501.332031 L 382.578125 565.332031 Z M 286.75 565.332031 " style=" stroke:none;fill-rule:nonzero;fill:rgb(0%,0%,0%);fill-opacity:1;"></path><path d="M 552 423.0625 C 554.019531 420.765625 554.960938 417.714844 554.582031 414.679688 L 543.914062 329.347656 C 543.25 324.007812 538.710938 320 533.332031 320 L 426.667969 320 C 420.773438 320 416.003906 324.78125 416.003906 330.667969 C 416.003906 331.113281 416.03125 331.554688 416.085938 331.988281 L 426.75 417.324219 C 427.417969 422.660156 431.953125 426.664062 437.332031 426.664062 L 544 426.664062 C 547.058594 426.671875 549.972656 425.355469 552 423.0625 Z M 446.75 405.332031 L 438.75 341.332031 L 523.914062 341.332031 L 531.914062 405.332031 Z M 446.75 405.332031 " style=" stroke:none;fill-rule:nonzero;fill:rgb(0%,0%,0%);fill-opacity:1;"></path><path d="M 554.664062 480 L 448 480 C 442.105469 480.003906 437.335938 484.78125 437.335938 490.667969 C 437.335938 491.113281 437.363281 491.554688 437.417969 491.992188 L 448.085938 577.324219 C 448.75 582.660156 453.289062 586.664062 458.664062 586.671875 L 565.332031 586.671875 C 571.222656 586.664062 575.996094 581.890625 575.996094 575.996094 C 575.996094 575.558594 575.96875 575.117188 575.914062 574.679688 L 565.246094 489.347656 C 564.582031 484.007812 560.046875 480 554.664062 480 Z M 468.082031 565.332031 L 460.085938 501.332031 L 545.246094 501.332031 L 553.25 565.332031 Z M 468.082031 565.332031 " style=" stroke:none;fill-rule:nonzero;fill:rgb(0%,0%,0%);fill-opacity:1;"></path><path d="M 544 117.335938 C 544 81.988281 515.34375 53.335938 480 53.335938 C 444.65625 53.335938 415.996094 81.988281 415.996094 117.335938 C 415.996094 152.679688 444.65625 181.332031 480 181.332031 C 515.328125 181.300781 543.964844 152.667969 544 117.335938 Z M 480 160 C 456.4375 160 437.332031 140.898438 437.332031 117.335938 C 437.332031 93.769531 456.4375 74.667969 480 74.667969 C 503.566406 74.667969 522.667969 93.769531 522.667969 117.335938 C 522.667969 140.898438 503.566406 160 480 160 Z M 480 160 " style=" stroke:none;fill-rule:nonzero;fill:rgb(0%,0%,0%);fill-opacity:1;"></path><path d="M 480 42.667969 C 485.890625 42.667969 490.664062 37.890625 490.664062 32.003906 L 490.664062 10.667969 C 490.664062 4.777344 485.890625 0 480 0 C 474.109375 0 469.332031 4.777344 469.332031 10.667969 L 469.332031 32.003906 C 469.332031 37.890625 474.109375 42.667969 480 42.667969 Z M 480 42.667969 " style=" stroke:none;fill-rule:nonzero;fill:rgb(0%,0%,0%);fill-opacity:1;"></path><path d="M 428.097656 48.769531 C 431.074219 53.851562 437.609375 55.550781 442.691406 52.574219 C 447.726562 49.625 449.453125 43.175781 446.570312 38.101562 L 435.90625 19.628906 C 432.988281 14.507812 426.480469 12.714844 421.359375 15.625 C 416.238281 18.535156 414.445312 25.050781 417.355469 30.171875 C 417.378906 30.210938 417.402344 30.253906 417.429688 30.292969 Z M 428.097656 48.769531 " style=" stroke:none;fill-rule:nonzero;fill:rgb(0%,0%,0%);fill-opacity:1;"></path><path d="M 382.292969 73.238281 L 400.769531 83.90625 C 405.890625 86.816406 412.398438 85.023438 415.3125 79.902344 C 418.195312 74.828125 416.464844 68.382812 411.433594 65.429688 L 392.960938 54.761719 C 387.839844 51.851562 381.324219 53.644531 378.414062 58.765625 C 375.527344 63.839844 377.257812 70.289062 382.292969 73.238281 Z M 382.292969 73.238281 " style=" stroke:none;fill-rule:nonzero;fill:rgb(0%,0%,0%);fill-opacity:1;"></path><path d="M 373.332031 128.003906 L 394.664062 128.003906 C 400.558594 128.003906 405.332031 123.222656 405.332031 117.335938 C 405.332031 111.441406 400.558594 106.664062 394.664062 106.664062 L 373.332031 106.664062 C 367.441406 106.664062 362.667969 111.441406 362.667969 117.335938 C 362.667969 123.222656 367.441406 128.003906 373.332031 128.003906 Z M 373.332031 128.003906 " style=" stroke:none;fill-rule:nonzero;fill:rgb(0%,0%,0%);fill-opacity:1;"></path><path d="M 400.769531 150.761719 L 382.292969 161.429688 C 377.167969 164.339844 375.382812 170.855469 378.292969 175.976562 C 381.203125 181.09375 387.714844 182.886719 392.839844 179.976562 C 392.878906 179.953125 392.917969 179.925781 392.960938 179.90625 L 411.433594 169.238281 C 416.515625 166.261719 418.21875 159.722656 415.242188 154.644531 C 412.292969 149.609375 405.839844 147.882812 400.769531 150.761719 Z M 400.769531 150.761719 " style=" stroke:none;fill-rule:nonzero;fill:rgb(0%,0%,0%);fill-opacity:1;"></path><path d="M 421.335938 218.945312 C 426.433594 221.890625 432.957031 220.140625 435.90625 215.039062 L 446.570312 196.566406 C 449.480469 191.445312 447.691406 184.933594 442.570312 182.023438 C 437.496094 179.136719 431.046875 180.863281 428.097656 185.898438 L 417.429688 204.375 C 414.484375 209.476562 416.230469 216 421.335938 218.945312 Z M 421.335938 218.945312 " style=" stroke:none;fill-rule:nonzero;fill:rgb(0%,0%,0%);fill-opacity:1;"></path><path d="M 469.332031 202.667969 L 469.332031 224 C 469.332031 229.894531 474.109375 234.667969 480 234.667969 C 485.890625 234.667969 490.664062 229.894531 490.664062 224 L 490.664062 202.667969 C 490.664062 196.777344 485.890625 192.003906 480 192.003906 C 474.109375 192.003906 469.332031 196.777344 469.332031 202.667969 Z M 469.332031 202.667969 " style=" stroke:none;fill-rule:nonzero;fill:rgb(0%,0%,0%);fill-opacity:1;"></path><path d="M 524.09375 215.039062 C 527.078125 220.121094 533.609375 221.828125 538.691406 218.847656 C 543.726562 215.894531 545.449219 209.449219 542.570312 204.375 L 531.90625 185.898438 C 528.992188 180.777344 522.480469 178.984375 517.359375 181.898438 C 512.238281 184.808594 510.445312 191.320312 513.355469 196.441406 C 513.378906 196.484375 513.40625 196.523438 513.429688 196.566406 Z M 524.09375 215.039062 " style=" stroke:none;fill-rule:nonzero;fill:rgb(0%,0%,0%);fill-opacity:1;"></path><path d="M 548.566406 169.238281 L 567.039062 179.90625 C 572.121094 182.886719 578.660156 181.183594 581.636719 176.097656 C 584.617188 171.015625 582.910156 164.484375 577.828125 161.5 C 577.789062 161.476562 577.746094 161.457031 577.707031 161.429688 L 559.230469 150.761719 C 554.148438 147.785156 547.613281 149.488281 544.636719 154.570312 C 541.65625 159.652344 543.359375 166.1875 548.445312 169.171875 C 548.484375 169.191406 548.523438 169.214844 548.566406 169.238281 Z M 548.566406 169.238281 " style=" stroke:none;fill-rule:nonzero;fill:rgb(0%,0%,0%);fill-opacity:1;"></path><path d="M 554.664062 117.335938 C 554.664062 123.222656 559.441406 128.003906 565.332031 128.003906 L 586.667969 128.003906 C 592.554688 128.003906 597.332031 123.222656 597.332031 117.335938 C 597.332031 111.441406 592.554688 106.664062 586.667969 106.664062 L 565.332031 106.664062 C 559.441406 106.664062 554.664062 111.441406 554.664062 117.335938 Z M 554.664062 117.335938 " style=" stroke:none;fill-rule:nonzero;fill:rgb(0%,0%,0%);fill-opacity:1;"></path><path d="M 544.660156 80 C 547.605469 85.101562 554.128906 86.851562 559.230469 83.90625 L 577.707031 73.238281 C 582.828125 70.328125 584.621094 63.8125 581.707031 58.691406 C 578.796875 53.574219 572.28125 51.78125 567.160156 54.691406 C 567.121094 54.71875 567.082031 54.742188 567.039062 54.765625 L 548.566406 65.429688 C 543.464844 68.375 541.714844 74.898438 544.660156 80 Z M 544.660156 80 " style=" stroke:none;fill-rule:nonzero;fill:rgb(0%,0%,0%);fill-opacity:1;"></path><path d="M 517.332031 52.671875 C 522.433594 55.621094 528.957031 53.867188 531.90625 48.769531 L 542.570312 30.292969 C 545.480469 25.171875 543.6875 18.664062 538.566406 15.746094 C 533.492188 12.867188 527.046875 14.59375 524.09375 19.628906 L 513.429688 38.101562 C 510.484375 43.203125 512.234375 49.726562 517.332031 52.671875 Z M 517.332031 52.671875 " style=" stroke:none;fill-rule:nonzero;fill:rgb(0%,0%,0%);fill-opacity:1;"></path></g></svg> 