<svg xmlns="http://www.w3.org/2000/svg" viewBox="0 0 640 640"><path d="M618.668 554.668V181.332c-.035-29.437-23.895-53.293-53.336-53.332h-160V53.336C405.297 23.89 381.442.036 352 0H74.668c-29.441.035-53.3 23.89-53.336 53.336v501.332H0V640h640v-85.332zm-53.336-405.336c17.676 0 32.004 14.332 32.004 32v373.336H341.332V181.332c0-17.668 14.328-32 32.004-32zM42.664 53.336c0-17.676 14.328-32.004 32.004-32.004H352c17.672 0 32 14.328 32 32.004V128h-10.664c-29.445.04-53.3 23.895-53.336 53.332v373.336H42.664zm576.004 565.332H21.332V576h597.336zm0 0"></path><path d="M106.664 448H160v21.332h-53.336zm0 0M106.664 384H160v21.332h-53.336zm0 0M106.664 320H160v21.332h-53.336zm0 0M106.664 256H160v21.336h-53.336zm0 0M106.664 192H160v21.336h-53.336zm0 0M106.664 128H160v21.336h-53.336zm0 0M106.664 64H160v21.332h-53.336zm0 0M384 448h53.336v21.332H384zm0 0M384 384h53.336v21.332H384zm0 0M384 320h53.336v21.332H384zm0 0M384 256h53.336v21.336H384zm0 0M384 192h53.336v21.336H384zm0 0"></path></svg> 