<svg xmlns="http://www.w3.org/2000/svg" viewBox="0 0 512.002 512"><path d="M502.008 333.82H485.46a120.912 120.912 0 00-10.36-25.058l11.688-11.684a9.996 9.996 0 000-14.133l-33.875-33.875c-3.902-3.902-10.226-3.902-14.133 0l-11.648 11.649a120.975 120.975 0 00-25.094-10.418v-16.45c0-5.519-4.476-9.992-9.992-9.992H344.14a9.99 9.99 0 00-9.993 9.993v16.41a120.838 120.838 0 00-25.144 10.406l-11.598-11.598a9.987 9.987 0 00-7.066-2.925c-.86 0-1.707.12-2.527.335v-46.82c0-5.52-4.473-9.996-9.993-9.996h-16.547a120.969 120.969 0 00-10.359-25.055l11.688-11.687c3.902-3.902 3.902-10.23 0-14.133l-33.875-33.871c-3.903-3.902-10.227-3.902-14.133 0l-11.649 11.648a120.762 120.762 0 00-25.093-10.418V89.695c0-5.52-4.477-9.992-9.993-9.992h-47.906c-5.516 0-9.992 4.473-9.992 9.992v16.41c-8.758 2.516-17.168 6-25.145 10.41L73.22 104.919a9.99 9.99 0 00-14.133 0L25.21 138.789c-3.902 3.902-3.902 10.23 0 14.133l11.598 11.598a121.138 121.138 0 00-10.407 25.144H9.992c-5.515 0-9.992 4.477-9.992 9.996v47.902c0 5.52 4.477 9.993 9.992 9.993h16.45a120.886 120.886 0 0010.417 25.093l-11.648 11.649a10.01 10.01 0 00-2.926 7.066c0 2.653 1.055 5.192 2.926 7.067l33.875 33.875c3.902 3.902 10.23 3.902 14.133 0l11.687-11.688a120.969 120.969 0 0025.055 10.36v16.546c0 5.52 4.477 9.993 9.992 9.993h47.906a9.99 9.99 0 009.993-9.993v-16.586a121.05 121.05 0 0025.007-10.37l11.735 11.738a10.01 10.01 0 007.066 2.925c.863 0 1.707-.12 2.528-.335v46.82c0 5.52 4.476 9.996 9.992 9.996h16.449a120.975 120.975 0 0010.418 25.094l-11.649 11.648a9.996 9.996 0 000 14.133l33.875 33.871c3.903 3.902 10.23 3.902 14.133 0l11.688-11.687a120.969 120.969 0 0025.054 10.359v16.547c0 5.52 4.477 9.992 9.993 9.992h47.906a9.99 9.99 0 009.992-9.992V485.09a120.824 120.824 0 0025.008-10.367l11.734 11.734c3.903 3.902 10.23 3.906 14.133 0l33.875-33.871a9.994 9.994 0 002.926-7.066 9.98 9.98 0 00-2.926-7.067l-11.734-11.738a121.094 121.094 0 0010.367-25.004h16.586c5.52 0 9.996-4.477 9.996-9.996v-47.902c-.004-5.52-4.48-9.993-9.996-9.993zm-242.57-22.226a120.715 120.715 0 00-8.848 22.226h-13.38zm-7.333-31.36c3.801-7.238 6.856-14.82 9.125-22.68h13.56zm-40.613 30.7a9.996 9.996 0 00-12.472-1.34 101.345 101.345 0 01-33.293 13.804 9.993 9.993 0 00-7.864 9.762v14.367H129.95v-14.336a9.994 9.994 0 00-7.879-9.765 101.37 101.37 0 01-33.34-13.781 9.99 9.99 0 00-12.464 1.343l-10.114 10.117-19.742-19.742 10.09-10.086a9.996 9.996 0 001.336-12.476 101.218 101.218 0 01-13.856-33.367 9.997 9.997 0 00-9.765-7.864H19.988v-27.918h14.2a9.994 9.994 0 009.765-7.875 101.263 101.263 0 0113.832-33.418 9.995 9.995 0 00-1.344-12.468l-10.03-10.036 19.741-19.738 10.032 10.031a10 10 0 0012.472 1.34 101.243 101.243 0 0133.414-13.832 9.995 9.995 0 007.88-9.77V99.692h27.913v14.227c0 4.7 3.274 8.766 7.864 9.766a101.273 101.273 0 0133.37 13.855 10.001 10.001 0 0012.477-1.336l10.086-10.086 19.742 19.738-10.117 10.118a9.995 9.995 0 00-1.347 12.46 101.33 101.33 0 0113.785 33.34 9.994 9.994 0 009.765 7.88h14.336v27.913h-14.367a9.993 9.993 0 00-9.762 7.868 101.325 101.325 0 01-13.804 33.289 9.996 9.996 0 001.34 12.472l10.171 10.168-19.742 19.742zm280.52 70.789h-14.367a9.993 9.993 0 00-9.762 7.863 101.38 101.38 0 01-13.805 33.293 9.99 9.99 0 001.34 12.469l10.172 10.172-19.742 19.738-10.172-10.168a9.99 9.99 0 00-12.469-1.34 101.288 101.288 0 01-33.293 13.8 9.997 9.997 0 00-7.863 9.766v14.368h-27.918v-14.336a9.99 9.99 0 00-7.875-9.766 101.295 101.295 0 01-33.34-13.785 9.996 9.996 0 00-12.465 1.348l-10.113 10.113-19.742-19.738 10.086-10.086a9.996 9.996 0 001.336-12.48 101.293 101.293 0 01-13.852-33.368 9.997 9.997 0 00-9.766-7.863h-14.23v-27.918h14.2a9.99 9.99 0 009.765-7.875 101.346 101.346 0 0113.832-33.418 9.99 9.99 0 00-1.34-12.469l-10.031-10.035 19.742-19.738 10.031 10.03a9.99 9.99 0 0012.469 1.34 101.346 101.346 0 0133.418-13.831 9.99 9.99 0 007.875-9.766v-14.2h27.918v14.231a9.99 9.99 0 007.863 9.762 101.385 101.385 0 0133.367 13.855 9.99 9.99 0 0012.477-1.336l10.09-10.085 19.738 19.742-10.113 10.113a9.995 9.995 0 00-1.348 12.46 101.35 101.35 0 0113.785 33.345 9.99 9.99 0 009.766 7.875h14.336zm0 0"></path><path d="M325.695 335.36a9.959 9.959 0 007.067-2.93l.12-.121c3.923-3.883 3.95-10.211.067-14.133-3.886-3.922-10.215-3.95-14.133-.067l-.191.188c-3.902 3.902-3.902 10.23 0 14.137a9.98 9.98 0 007.07 2.925zm0 0"></path><path d="M351.059 299.906c-5.356 1.34-8.61 6.766-7.27 12.121 1.34 5.356 6.77 8.606 12.117 7.27 17.223-4.313 34.989.601 47.52 13.133 19.484 19.484 19.484 51.183 0 70.664-9.438 9.441-21.985 14.636-35.332 14.636-13.344 0-25.895-5.195-35.332-14.636-11.754-11.754-16.883-28.535-13.719-44.883 1.05-5.418-2.492-10.664-7.914-11.711-5.418-1.047-10.66 2.492-11.707 7.91-4.434 22.88 2.75 46.36 19.207 62.817 13.215 13.214 30.781 20.492 49.465 20.492 18.687 0 36.254-7.278 49.465-20.492 27.277-27.274 27.277-71.657 0-98.93-17.282-17.281-42.762-24.328-66.5-18.39zm0 0"></path><path d="M398.074 367.762c0-16.532-13.449-29.98-29.98-29.98s-29.98 13.448-29.98 29.98 13.449 29.98 29.98 29.98 29.98-13.449 29.98-29.98zm-39.972 0c0-5.508 4.48-9.992 9.992-9.992s9.992 4.484 9.992 9.992c0 5.511-4.48 9.996-9.992 9.996s-9.992-4.485-9.992-9.996zm0 0M179.445 188.484a9.913 9.913 0 007.004 2.887 9.971 9.971 0 007.106-2.969c3.886-3.918 3.84-10.27-.078-14.156l-.133-.129c-3.922-3.887-10.227-3.84-14.11.078-3.89 3.918-3.84 10.27.078 14.157zm0 0"></path><path d="M202.262 206.547c-5.48.652-9.395 5.625-8.742 11.105 1.828 15.336-3.375 30.387-14.282 41.29-19.48 19.48-51.18 19.484-70.664 0-9.437-9.438-14.636-21.985-14.636-35.333s5.199-25.894 14.636-35.332c11.297-11.297 27.469-16.53 43.278-14.004 5.449.872 10.574-2.84 11.445-8.289s-2.84-10.574-8.29-11.449c-22.105-3.535-44.75 3.793-60.566 19.61-13.214 13.21-20.488 30.78-20.488 49.464 0 18.688 7.274 36.254 20.488 49.465 13.637 13.64 31.547 20.457 49.465 20.457 17.91-.004 35.828-6.82 49.465-20.457 15.266-15.265 22.555-36.328 19.996-57.789-.656-5.48-5.644-9.387-11.105-8.738zm0 0"></path><path d="M113.926 223.61c0 16.53 13.449 29.98 29.98 29.98s29.98-13.45 29.98-29.98-13.448-29.981-29.98-29.981-29.98 13.45-29.98 29.98zm39.972 0c0 5.511-4.48 9.992-9.992 9.992s-9.992-4.48-9.992-9.993 4.48-9.992 9.992-9.992 9.992 4.48 9.992 9.992zm0 0M502.008 76.68H482.3a89.208 89.208 0 00-11.262-19.47l9.863-17.081c2.762-4.781 1.121-10.895-3.656-13.652L433.711 1.344a9.973 9.973 0 00-7.582-1A10 10 0 00420.059 5l-9.86 17.082a91.36 91.36 0 00-22.484 0L377.855 5c-2.761-4.781-8.875-6.418-13.652-3.66l-43.535 25.137a10.006 10.006 0 00-4.656 6.066 10.003 10.003 0 001 7.582l9.863 17.082a89.534 89.534 0 00-11.258 19.469h-19.71c-5.516 0-9.993 4.476-9.993 9.996v50.266c0 5.519 4.477 9.996 9.992 9.996h19.711a89.534 89.534 0 0011.258 19.468l-9.863 17.082a10.006 10.006 0 00-1 7.582 10.006 10.006 0 004.656 6.067l43.535 25.137a9.99 9.99 0 0013.652-3.66l9.86-17.079c7.445.922 15.039.922 22.484 0l9.863 17.078a9.977 9.977 0 006.067 4.657 9.987 9.987 0 007.582-.996l43.535-25.137c4.781-2.758 6.418-8.871 3.656-13.649l-9.859-17.082a89.534 89.534 0 0011.258-19.468h19.707c5.52 0 9.992-4.477 9.992-9.996V86.672c0-5.52-4.477-9.992-9.992-9.992zm-9.996 50.265h-16.637a9.993 9.993 0 00-9.492 6.875c-3.04 9.243-7.887 17.625-14.41 24.918a9.99 9.99 0 00-1.203 11.66l8.328 14.426-26.223 15.14-8.32-14.41a9.987 9.987 0 00-10.688-4.788 71.452 71.452 0 01-28.816 0 9.998 9.998 0 00-10.688 4.789l-8.32 14.41-26.223-15.14 8.328-14.427a9.991 9.991 0 00-1.203-11.66c-6.523-7.293-11.37-15.675-14.41-24.918a9.993 9.993 0 00-9.492-6.875h-16.64V96.668h16.64a9.993 9.993 0 009.492-6.875c3.04-9.242 7.887-17.625 14.41-24.918a9.99 9.99 0 001.203-11.66l-8.328-14.426 26.223-15.14 8.32 14.41a9.998 9.998 0 0010.688 4.789 71.452 71.452 0 0128.816 0 9.995 9.995 0 0010.688-4.79l8.32-14.41 26.223 15.141-8.328 14.426a9.991 9.991 0 001.203 11.66c6.523 7.293 11.37 15.676 14.41 24.918a9.993 9.993 0 009.492 6.875h16.637zm0 0"></path><path d="M398.957 65.703c-25.422 0-46.102 20.684-46.102 46.102 0 25.422 20.68 46.101 46.102 46.101s46.102-20.68 46.102-46.101c0-25.418-20.68-46.102-46.102-46.102zm0 72.219c-14.398 0-26.113-11.715-26.113-26.117 0-14.399 11.715-26.114 26.113-26.114s26.117 11.715 26.117 26.114c0 14.402-11.719 26.117-26.117 26.117zm0 0"></path></svg> 