<svg xmlns="http://www.w3.org/2000/svg" viewBox="0 0 512 512"><path d="M467 120c-24.814 0-46 20.186-46 45 0 19.53 13.578 36.024 31 42.237V300h-31v-45c0-24.814-20.186-45-45-45h-45v-30h45c8.291 0 15-6.709 15-15v-47.763c17.422-6.213 30-22.707 30-42.237 0-24.814-20.186-45-45-45s-45 20.186-45 45c0 19.53 12.578 36.024 30 42.237V150h-45c-8.291 0-15 6.709-15 15v45h-30V87.237C288.422 81.024 301 64.53 301 45c0-24.814-20.186-45-45-45s-45 20.186-45 45c0 19.53 12.578 36.024 30 42.237V210h-30v-45c0-8.291-6.709-15-15-15h-45v-32.763c17.422-6.213 30-22.707 30-42.237 0-24.814-20.186-45-45-45S91 50.186 91 75c0 19.53 12.578 36.024 30 42.237V165c0 8.291 6.709 15 15 15h45v30h-45c-24.814 0-45 20.186-45 45v45H60v-92.763C77.422 201.024 91 184.53 91 165c0-24.814-21.186-45-46-45S0 140.186 0 165c0 19.53 12.578 36.024 30 42.237V315c0 8.291 6.709 15 15 15h46v47c0 24.814 20.186 45 45 45h240c24.814 0 45-20.186 45-45v-47h46c8.291 0 15-6.709 15-15V207.237c17.422-6.213 30-22.707 30-42.237 0-24.814-20.186-45-45-45zM346 482h-45v-30h-90v30h-45c-8.291 0-15 6.709-15 15s6.709 15 15 15h180c8.291 0 15-6.709 15-15s-6.709-15-15-15z"></path></svg> 