<svg xmlns="http://www.w3.org/2000/svg" height="512" viewBox="0 0 64 64" width="512"><path d="M32 20c3.309 0 6-2.691 6-6s-2.691-6-6-6-6 2.691-6 6 2.691 6 6 6zm0-10c2.206 0 4 1.794 4 4s-1.794 4-4 4-4-1.794-4-4 1.794-4 4-4z"></path><path d="M57.78 24c-2.521-8.112-8.889-14.694-16.906-17.493l.736-1.849-3.015.603a5.166 5.166 0 01-5.116-1.955L32 1.333l-1.479 1.973a5.165 5.165 0 01-5.116 1.955l-3.015-.603.736 1.848A26.915 26.915 0 006.274 23.815c-2.759 1.27-4.804 3.908-5.199 7.007-.447 3.508 1.118 6.865 4.084 8.761.519.332.841.97.841 1.667V43c0 2.043 1.546 3.714 3.526 3.952A27.325 27.325 0 0017 54.442V61H5v2h54v-2H45v-5.344A27.028 27.028 0 0055.074 46H61v-2h-2v-2h4V24zM61 32h-4v-6h4zm-10 8v-6h4v6zm-6-6h4v6h-4zm0-2v-6h4v6zm6 0v-6h4v6zM25.411 7.29A7.181 7.181 0 0032 4.662a7.18 7.18 0 006.59 2.628 7.094 7.094 0 002.577 6.7 7.142 7.142 0 00-2.714 6.569 7.1 7.1 0 00-6.454 2.777 7.183 7.183 0 00-6.589-2.626A7.093 7.093 0 0022.821 14a7.096 7.096 0 002.59-6.71zM6.237 37.898c-2.309-1.475-3.526-4.089-3.177-6.823.399-3.137 2.974-5.673 6.12-6.029.278-.031.554-.046.828-.046a6.92 6.92 0 014.653 1.778A7.007 7.007 0 0117 32a6.973 6.973 0 01-3.22 5.887c-1.057.679-1.703 1.833-1.768 3.113H11v-6.184A2.996 2.996 0 0013 32c0-1.654-1.346-3-3-3s-3 1.346-3 3c0 1.302.839 2.402 2 2.816V41H7.985c-.074-1.291-.711-2.439-1.748-3.102zM9 32c0-.551.449-1 1-1s1 .449 1 1-.449 1-1 1-1-.449-1-1zM8 43h4c0 1.103-.897 2-2 2s-2-.897-2-2zm29 2v4.58l-4-.8V61h-4V46.78l-2 .4V45zm-10 4.22V61h-8V50.82zM35 61v-9.78l8 1.6V61zm10-7.649V51.18l-6-1.2V43h-2v-2h-2v2h-2v-4h-2v4h-2v-2h-2v2h-2v4.58l-8 1.6v2.809a25.334 25.334 0 01-5.292-5.387A3.994 3.994 0 0014 43v-1.792c0-.669.33-1.297.862-1.639A8.963 8.963 0 0019 32a9.012 9.012 0 00-3.006-6.713 9.041 9.041 0 00-7.039-2.228c-.109.012-.215.035-.323.051A24.917 24.917 0 0123.49 8.494a5.102 5.102 0 01-2.486 4.337L19.057 14l1.948 1.169a5.114 5.114 0 012.125 6.313l-.74 1.86 3.015-.603a5.167 5.167 0 015.116 1.955L32 26.667l1.572-2.095a5.12 5.12 0 014.934-1.988l2.81.458-.6-1.612a5.139 5.139 0 012.17-6.195L44.944 14l-1.948-1.169a5.104 5.104 0 01-2.485-4.335C47.602 11.073 53.264 16.858 55.685 24H43v18h4v2h-2v2h7.716A25.032 25.032 0 0145 53.351zM57 44h-8v-2h8zm0-4v-6h4v6zM61 61h2v2h-2zM1 61h2v2H1z"></path><path d="M37 57h4v2h-4zM21 53h4v2h-4zM21 57h4v2h-4zM25 29h14v2H25zM37 33h2v2h-2zM29 33h2v2h-2zM25 33h2v2h-2zM33 33h2v2h-2z"></path></svg> 