<svg xmlns="http://www.w3.org/2000/svg" viewBox="-21 -39 682.667 682"><path d="M627.832 284.305a18.804 18.804 0 00-20.766 5.172l-156.89 178.218-111.95-30.078a18.803 18.803 0 00-15.038 2.332l-114.813 73.625-102.082-9.668a18.86 18.86 0 00-12.766 3.461L7.824 569.07A18.816 18.816 0 00.91 590.117a18.814 18.814 0 0017.903 13.043h602.375c10.39 0 18.812-8.43 18.812-18.82V301.91c0-7.832-4.844-14.84-12.168-17.605zm-25.46 281.222H77.147l32.633-23.492 101.512 9.613c4.187.387 8.39-.625 11.93-2.894L336.5 476.117l115.203 30.95a18.81 18.81 0 0019-5.739l131.668-149.57zm0 0M73.613 222.02c1.164.066 11.196.578 28.008.578 33.469-.004 93.774-2.028 164.313-13.637 62.445-10.281 119.898-26.004 170.75-46.727 48.96-19.953 91.894-44.648 128.187-73.625v47.903c0 10.39 8.426 18.816 18.816 18.816s18.817-8.426 18.817-18.816V46.875c0-.023-.004-.05-.004-.074 0-.309-.004-.586-.023-.828-.04-.856-.133-1.711-.293-2.57a18.83 18.83 0 00-11.016-13.81L524.535.724c-9.535-4.133-20.613.25-24.746 9.78-4.129 9.536.25 20.614 9.785 24.747l39.942 17.309c-86.34 72.77-203.055 104.93-288.887 119.14-102.078 16.89-184.184 12.793-184.992 12.742-10.418-.558-19.239 7.403-19.801 17.782-.559 10.375 7.402 19.242 17.777 19.797zm0 0M81.418 427.504v33.418c0 10.394 8.426 18.82 18.816 18.82s18.813-8.426 18.813-18.82v-33.418c0-10.39-8.422-18.816-18.813-18.816s-18.816 8.425-18.816 18.816zm0 0"></path><path d="M310.363 360.648v33.422c0 10.39 8.426 18.817 18.817 18.817 10.39 0 18.812-8.426 18.812-18.817v-33.422c0-10.39-8.422-18.812-18.812-18.812s-18.817 8.422-18.817 18.812zm0 0M621.188 184.941c-10.391 0-18.817 8.422-18.817 18.813v33.422c0 10.39 8.426 18.816 18.816 18.816S640 247.566 640 237.176v-33.422c0-10.39-8.422-18.813-18.813-18.813zm0 0"></path></svg> 