<svg xmlns="http://www.w3.org/2000/svg" viewBox="0 0 512 512"><path d="M478.325 302.62l-22.33-186.519C470.752 108.708 481 93.598 481 76c0-24.814-20.186-45-45-45-18.887 0-35.03 11.724-41.693 28.255L203.764 32.038C193.671 13.079 173.939 0 151 0c-33.091 0-60 26.909-60 60 0 16.348 6.606 31.154 17.241 41.984-3.233 3.363-63.34 134.98-65.279 139.223C19.111 242.298 0 261.883 0 286c0 24.814 20.186 45 45 45 7.582 0 14.623-2.064 20.898-5.389l88.473 124.433C152.229 455.285 151 460.996 151 467c0 24.814 20.186 45 45 45 23.89 0 43.299-18.763 44.727-42.301l203.011-85.373C450.002 388.144 457.766 391 467 391c24.814 0 45-20.186 45-45 0-20.88-14.359-38.322-33.675-43.38zm-406.458-52.5c1.892-4.138 59.656-128.879 61.086-133.198C138.684 118.746 144.67 120 151 120c31.974 0 57.938-25.192 59.67-56.741l182.591 26.124c.639 2.027 1.342 4.003 2.249 5.896L301.289 189.5c-8.923-5.268-19.195-8.5-30.289-8.5-33.091 0-60 26.909-60 60 0 1.071.262 2.071.317 3.129L86.439 268.464c-3.126-7.361-8.258-13.603-14.572-18.344zm160.468 190.564C224.149 429.416 210.963 422 196 422c-7.592 0-14.641 2.069-20.922 5.402l-88.46-124.415c.557-1.36.895-2.818 1.318-4.239l132.451-25.825C231.028 289.735 249.668 301 271 301c19.105 0 35.951-9.137 46.945-23.086l104.883 76.284c.363 1.963.978 3.818 1.588 5.682l-192.081 80.804zM429.24 321.698l-99.115-72.047c.415-2.848.875-5.688.875-8.651 0-11.094-3.232-21.367-8.5-30.289l94.221-94.221c3.021 1.447 6.176 2.631 9.521 3.376l22.185 185.257a45.181 45.181 0 00-19.187 16.575z"></path></svg> 