<svg xmlns="http://www.w3.org/2000/svg" viewBox="0 0 376.357 376.357"><path d="M283.426 186.846c34.631 0 63.598-33.373 63.598-69.928 0-38.799-31.451-70.25-70.25-70.25-36.553 0-69.928 29.103-69.928 63.6l.029 76.544 76.551.034zM94.242 206.846c-41.877 0-76.908 40.357-76.908 84.562 0 46.918 38.033 84.949 84.951 84.949 44.202 0 84.561-35.191 84.561-76.907l-.035-92.563-92.569-.041zM299.451 206.846l-92.57.041-.035 92.563c0 41.716 40.359 76.907 84.561 76.907 46.918 0 84.951-38.031 84.951-84.949-.001-44.205-35.03-84.562-76.907-84.562zM93.637 0C41.922 0 0 41.923 0 93.639c0 48.722 38.791 93.207 84.772 93.207l102.028-.039.045-102.033C186.846 38.614 142.362 0 93.637 0z"></path></svg>