<svg xmlns="http://www.w3.org/2000/svg" viewBox="0 0 512 512"><path d="M503.709 130.082l-241-120a15.019 15.019 0 00-13.418 0l-241 120C3.208 132.631 0 137.816 0 143.5s3.208 10.869 8.291 13.418l241 120c2.109 1.055 4.409 1.582 6.709 1.582s4.6-.527 6.709-1.582l241-120c5.083-2.549 8.291-7.734 8.291-13.418s-3.208-10.869-8.291-13.418zM503.709 355.082l-14.619-7.31-212.963 105.982c-6.211 3.105-13.169 4.746-20.127 4.746s-13.916-1.641-20.127-4.746L22.91 347.772l-14.619 7.31A15.006 15.006 0 000 368.5a15.006 15.006 0 008.291 13.418l241 120c2.109 1.055 4.409 1.582 6.709 1.582s4.6-.527 6.709-1.582l241-120A15.006 15.006 0 00512 368.5a15.006 15.006 0 00-8.291-13.418z"></path><path d="M503.709 280.082l-14.619-7.31-212.963 105.982c-6.211 3.105-13.169 4.746-20.127 4.746s-13.916-1.641-20.127-4.746L22.91 272.772l-14.619 7.31A15.006 15.006 0 000 293.5a15.006 15.006 0 008.291 13.418l241 120c2.109 1.055 4.409 1.582 6.709 1.582s4.6-.527 6.709-1.582l241-120A15.006 15.006 0 00512 293.5a15.006 15.006 0 00-8.291-13.418z"></path><path d="M503.709 205.082l-14.619-7.31-212.963 105.982c-6.211 3.105-13.169 4.746-20.127 4.746s-13.916-1.641-20.127-4.746L22.91 197.772l-14.619 7.31C3.208 207.631 0 212.816 0 218.5s3.208 10.869 8.291 13.418l241 120c2.109 1.055 4.409 1.582 6.709 1.582s4.6-.527 6.709-1.582l241-120c5.083-2.549 8.291-7.734 8.291-13.418s-3.208-10.869-8.291-13.418z"></path></svg> 