<svg xmlns="http://www.w3.org/2000/svg" viewBox="0 0 490.667 490.667"><path d="M437.333 288c-20.992 0-39.04 12.309-47.723 30.016l-91.2-27.371c.043-.896.256-1.749.256-2.645 0-29.397-23.936-53.333-53.333-53.333S192 258.603 192 288c0 4.885.875 9.515 2.112 14.016l-99.285 59.563c-9.792-12.245-24.661-20.245-41.493-20.245C23.936 341.333 0 365.269 0 394.667S23.936 448 53.333 448s53.333-23.936 53.333-53.333c0-4.885-.875-9.536-2.112-14.037l99.264-59.563c9.792 12.245 24.661 20.267 41.515 20.267 20.992 0 39.04-12.309 47.723-30.016l91.2 27.371c-.043.896-.256 1.749-.256 2.645 0 29.397 23.936 53.333 53.333 53.333s53.333-23.936 53.333-53.333S466.731 288 437.333 288zm-384 138.667c-17.643 0-32-14.357-32-32s14.357-32 32-32 32 14.357 32 32c0 17.642-14.357 32-32 32zm192-106.667c-17.643 0-32-14.357-32-32s14.357-32 32-32 32 14.357 32 32-14.357 32-32 32zm192 53.333c-17.643 0-32-14.357-32-32s14.357-32 32-32 32 14.357 32 32-14.357 32-32 32zM53.333 256c29.397 0 53.333-23.936 53.333-53.333 0-4.885-.875-9.536-2.112-14.037l99.285-59.563c9.771 12.245 24.64 20.267 41.493 20.267 20.992 0 39.04-12.309 47.723-30.016l91.2 27.371c-.043.896-.256 1.749-.256 2.645 0 29.397 23.936 53.333 53.333 53.333s53.333-23.936 53.333-53.333S466.731 96 437.333 96c-20.992 0-39.04 12.309-47.723 30.016l-91.2-27.371c.043-.896.256-1.749.256-2.645 0-29.397-23.936-53.333-53.333-53.333S192 66.603 192 96c0 4.885.875 9.536 2.112 14.016L94.827 169.6c-9.771-12.245-24.64-20.267-41.493-20.267C23.936 149.333 0 173.269 0 202.667S23.936 256 53.333 256zm384-138.667c17.643 0 32 14.357 32 32s-14.357 32-32 32-32-14.357-32-32 14.358-32 32-32zM245.333 64c17.643 0 32 14.357 32 32s-14.357 32-32 32-32-14.357-32-32 14.358-32 32-32zm-192 106.667c17.643 0 32 14.357 32 32s-14.357 32-32 32-32-14.357-32-32 14.358-32 32-32z"></path></svg> 