<svg xmlns="http://www.w3.org/2000/svg" viewBox="0 0 49.08 54.79"><defs><style>.cls-1651654{fill:#00245a}</style></defs><g id="icon"><path class="cls-1651654" d="M29.57 25.72L9.83 46.1C8.4 47.36 3.69 47.75 2 45.15c-1.43-1.26-1-4.56.44-5.81l14.49-15.82L.58 6.59A4.27 4.27 0 011.86.94C3.29-.31 7.52-.31 8.95.94l20.62 20.22a3 3 0 010 4.55z"></path><path d="M19.51 21.36L39.25 1c1.43-1.26 6.14-1.65 7.87.95 1.43 1.26 1 4.56-.44 5.81l-14.52 15.8 16.35 16.93a4.27 4.27 0 01-1.29 5.65c-1.43 1.26-5.66 1.26-7.09 0L19.51 25.92a3 3 0 010-4.55z" fill="#00bfff"></path></g><g id="text"><path class="cls-1651654" d="M2.06 54.75v-3.2H.51v-.18h3.36v.18H2.32v3.2zM8.12 54.75v-3.38h2.54v.19H8.37v1.39h2.17v.19H8.37v1.43h2.29v.19zM16.57 53l1.6 1.73h-.29l-1.45-1.58-1.43 1.6h-.3L16.28 53l-1.51-1.64h.29l1.37 1.49 1.36-1.49h.29zM23.54 54.75v-3.2H22v-.18h3.36v.18h-1.57v3.2zM32.74 54.75h-.28l-.71-1.08a.83.83 0 00-.36-.33 1.5 1.5 0 00-.57-.09h-1v1.5h-.25v-3.38h1.63a1.82 1.82 0 011 .24.79.79 0 01.36.7.77.77 0 01-.29.63 1.51 1.51 0 01-.83.28.73.73 0 01.27.13 1.13 1.13 0 01.22.25zm-1.51-1.69q1.1 0 1.1-.76a.63.63 0 00-.27-.56 1.48 1.48 0 00-.83-.19h-1.38v1.51zM37.92 54.58a1.5 1.5 0 01-.64-.6 1.81 1.81 0 01-.22-.92 1.84 1.84 0 01.22-.92 1.48 1.48 0 01.64-.6 2.44 2.44 0 012 0 1.48 1.48 0 01.64.6 2 2 0 010 1.85 1.5 1.5 0 01-.64.6 2.43 2.43 0 01-2 0zm2.15-.39a1.76 1.76 0 000-2.26 1.91 1.91 0 00-2.34 0 1.75 1.75 0 000 2.26 1.89 1.89 0 002.33 0zM48.34 51.37h.23v3.38h-.2l-2.8-3v3h-.23v-3.38h.21l2.8 3z"></path></g></svg> 