<svg xmlns="http://www.w3.org/2000/svg" viewBox="0 0 308.9 61.85"><defs><style>.cls-1,.cls-2{fill:#00245a;}.cls-1{stroke:#00245a;}.cls-1,.cls-4{stroke-linecap:round;}.cls-1,.cls-3,.cls-4{stroke-miterlimit:10;stroke-width:2px;}.cls-3,.cls-4,.cls-5{fill:#00bfff;}.cls-3,.cls-4{stroke:#00bfff;}</style></defs><title>logo</title><g><path class="cls-1" d="M28.83,53.42a4.27,4.27,0,0,1,1,3,3.7,3.7,0,0,1-1.38,3A5.33,5.33,0,0,1,25,60.52h-1.5A13.84,13.84,0,0,1,16,58.42a14.72,14.72,0,0,1-5.3-5.74,17.21,17.21,0,0,1-1.92-8.17V24.12H4.92a4,4,0,0,1-2.84-1A3.21,3.21,0,0,1,1,20.65,3.4,3.4,0,0,1,2.08,18a4,4,0,0,1,2.84-1H8.76V5.13a4,4,0,0,1,1.17-3,4.09,4.09,0,0,1,3-1.16,4.1,4.1,0,0,1,3,1.16,4,4,0,0,1,1.17,3V17H24.2A4,4,0,0,1,27,18a3.41,3.41,0,0,1,1.08,2.64A3.22,3.22,0,0,1,27,23.13a4,4,0,0,1-2.84,1H17.11V44.51A8.41,8.41,0,0,0,18.94,50a5.63,5.63,0,0,0,4.51,2.23h2.84A3.31,3.31,0,0,1,28.83,53.42Z"></path><path class="cls-1" d="M74.46,39.84a3.83,3.83,0,0,1-2.75,1H40a14.5,14.5,0,0,0,5.3,9.33,17.1,17.1,0,0,0,15.94,2.64,15.63,15.63,0,0,0,4.46-2.23,4.35,4.35,0,0,1,2.75-.91,3.92,3.92,0,0,1,4,3.63,3,3,0,0,1-1.34,2.48,23.17,23.17,0,0,1-7.05,3.63,25.74,25.74,0,0,1-20.32-1.53,21.38,21.38,0,0,1-8.47-8.13,22.91,22.91,0,0,1-3-11.8,24.2,24.2,0,0,1,2.88-11.85,20.7,20.7,0,0,1,8-8.17A23.06,23.06,0,0,1,54.76,15a21.17,21.17,0,0,1,11.1,2.81A18.59,18.59,0,0,1,73,25.68a25.63,25.63,0,0,1,2.5,11.56A3.44,3.44,0,0,1,74.46,39.84ZM44.87,25.44a14.78,14.78,0,0,0-4.8,8.83H67.87a14.58,14.58,0,0,0-4.17-8.83,12.33,12.33,0,0,0-8.93-3.3A14.53,14.53,0,0,0,44.87,25.44Z"></path><path class="cls-2" d="M109.91,40.14,90.17,60.52c-1.43,1.26-6.14,1.65-7.87-.95-1.43-1.26-1-4.56.44-5.81L97.27,37.94,80.92,21a4.27,4.27,0,0,1,1.29-5.65c1.43-1.26,5.66-1.26,7.09,0l20.62,20.22a3,3,0,0,1,0,4.55Z"></path></g><g><path class="cls-3" d="M162.44,53.42a4.22,4.22,0,0,1,1.07,3,3.67,3.67,0,0,1-1.41,3,5.52,5.52,0,0,1-3.62,1.16h-1.54a14.38,14.38,0,0,1-7.63-2.11,14.84,14.84,0,0,1-5.42-5.74,16.91,16.91,0,0,1-2-8.17V24.12H138a4.19,4.19,0,0,1-2.9-1A3.18,3.18,0,0,1,134,20.65,3.37,3.37,0,0,1,135.11,18a4.19,4.19,0,0,1,2.9-1h3.92V5.13a4,4,0,0,1,1.19-3,4.66,4.66,0,0,1,6.14,0,4,4,0,0,1,1.19,3V17h7.25a4.19,4.19,0,0,1,2.9,1,3.37,3.37,0,0,1,1.11,2.64,3.19,3.19,0,0,1-1.11,2.48,4.19,4.19,0,0,1-2.9,1h-7.25V44.51A8.29,8.29,0,0,0,152.34,50a5.8,5.8,0,0,0,4.61,2.23h2.9A3.41,3.41,0,0,1,162.44,53.42Z"></path><path class="cls-4" d="M202,16.19q2.56,1.32,2.56,3.3a2.85,2.85,0,0,1-.09.83A3.28,3.28,0,0,1,201,23a7.29,7.29,0,0,1-1.28-.17,34.82,34.82,0,0,0-5.54-.58q-6.14,0-9.89,2.72a8.62,8.62,0,0,0-3.75,7.35V56.4a4.15,4.15,0,0,1-1.07,3.05,4.33,4.33,0,0,1-3.2,1.07,4.46,4.46,0,0,1-3.16-1A4,4,0,0,1,172,56.4V19.49a4.05,4.05,0,0,1,1.11-3.05,4.36,4.36,0,0,1,3.16-1.07q4.26,0,4.26,4.13v1.57a18,18,0,0,1,6.31-4.54,19.68,19.68,0,0,1,8-1.65A15.65,15.65,0,0,1,202,16.19Z"></path><path class="cls-4" d="M243.78,18a21.45,21.45,0,0,1,8.36,8.13,23.21,23.21,0,0,1,3,11.89,23.28,23.28,0,0,1-3,11.8,21.14,21.14,0,0,1-8.31,8.13,26.75,26.75,0,0,1-24.35,0,21.05,21.05,0,0,1-8.36-8.13,23.27,23.27,0,0,1-3-11.8,23.44,23.44,0,0,1,3-11.89A21.06,21.06,0,0,1,219.51,18,25.05,25.05,0,0,1,231.71,15,24.64,24.64,0,0,1,243.78,18Zm-19.87,6.48A14.13,14.13,0,0,0,218.49,30a16.27,16.27,0,0,0-2,8,16,16,0,0,0,2,8,14.19,14.19,0,0,0,5.42,5.49,16.36,16.36,0,0,0,15.61,0A13.9,13.9,0,0,0,244.89,46a16.34,16.34,0,0,0,1.92-8,16.58,16.58,0,0,0-1.92-8,13.84,13.84,0,0,0-5.37-5.53,16.36,16.36,0,0,0-15.61,0Z"></path><path class="cls-4" d="M297.92,17.43a17.75,17.75,0,0,1,7.33,7.22,23.17,23.17,0,0,1,2.64,11.43V56.4a4,4,0,0,1-1.24,3,4.65,4.65,0,0,1-6.23,0,4,4,0,0,1-1.24-3V36.09q0-6.69-3.71-10.11t-9.85-3.43a15,15,0,0,0-6.52,1.4,11.49,11.49,0,0,0-4.61,3.8,9.19,9.19,0,0,0-1.66,5.37V56.4a4.09,4.09,0,0,1-1.19,3,4.7,4.7,0,0,1-6.27,0,4,4,0,0,1-1.24-3V19.58a4,4,0,0,1,1.24-3.05,4.83,4.83,0,0,1,6.27,0,4.06,4.06,0,0,1,1.19,3.05v.91a19,19,0,0,1,6.48-4.09,23.45,23.45,0,0,1,18.59,1Z"></path><path class="cls-5" d="M99.85,35.79,119.59,15.4c1.43-1.26,6.14-1.65,7.87.95,1.43,1.26,1,4.56-.44,5.81L112.5,38l16.35,16.93a4.27,4.27,0,0,1-1.29,5.65c-1.43,1.26-5.66,1.26-7.09,0L99.85,40.34a3,3,0,0,1,0-4.55Z"></path></g></svg> 