<svg xmlns="http://www.w3.org/2000/svg" viewBox="0 0 308.9 61.85"><defs><style>.cls-1,.cls-4{fill:#00245a;stroke:#00245a;stroke-linecap:round;stroke-miterlimit:10;stroke-width:2px}.cls-4{fill:#fff;stroke:#fff}</style></defs><g><path class="cls-1" d="M28.83 53.42a4.27 4.27 0 011 3 3.7 3.7 0 01-1.38 3 5.33 5.33 0 01-3.45 1.1h-1.5a13.84 13.84 0 01-7.5-2.1 14.72 14.72 0 01-5.3-5.74 17.21 17.21 0 01-1.92-8.17V24.12H4.92a4 4 0 01-2.84-1A3.21 3.21 0 011 20.65 3.4 3.4 0 012.08 18a4 4 0 012.84-1h3.84V5.13a4 4 0 011.17-3 4.09 4.09 0 013-1.16 4.1 4.1 0 013 1.16 4 4 0 011.17 3V17h7.1a4 4 0 012.8 1 3.41 3.41 0 011.08 2.64A3.22 3.22 0 0127 23.13a4 4 0 01-2.84 1h-7.05v20.38A8.41 8.41 0 0018.94 50a5.63 5.63 0 004.51 2.23h2.84a3.31 3.31 0 012.54 1.19zM74.46 39.84a3.83 3.83 0 01-2.75 1H40a14.5 14.5 0 005.3 9.33 17.1 17.1 0 0015.94 2.64 15.63 15.63 0 004.46-2.23 4.35 4.35 0 012.75-.91 3.92 3.92 0 014 3.63 3 3 0 01-1.34 2.48 23.17 23.17 0 01-7.05 3.63 25.74 25.74 0 01-20.32-1.53 21.38 21.38 0 01-8.47-8.13 22.91 22.91 0 01-3-11.8 24.2 24.2 0 012.88-11.85 20.7 20.7 0 018-8.17A23.06 23.06 0 0154.76 15a21.17 21.17 0 0111.1 2.81A18.59 18.59 0 0173 25.68a25.63 25.63 0 012.5 11.56 3.44 3.44 0 01-1.04 2.6zm-29.59-14.4a14.78 14.78 0 00-4.8 8.83h27.8a14.58 14.58 0 00-4.17-8.83 12.33 12.33 0 00-8.93-3.3 14.53 14.53 0 00-9.9 3.3z"></path><path d="M109.91 40.14L90.17 60.52c-1.43 1.26-6.14 1.65-7.87-.95-1.43-1.26-1-4.56.44-5.81l14.53-15.82L80.92 21a4.27 4.27 0 011.29-5.65c1.43-1.26 5.66-1.26 7.09 0l20.62 20.22a3 3 0 010 4.55z" fill="#00245a"></path></g><g><path d="M162.44 53.42a4.22 4.22 0 011.07 3 3.67 3.67 0 01-1.41 3 5.52 5.52 0 01-3.62 1.16h-1.54a14.38 14.38 0 01-7.63-2.11 14.84 14.84 0 01-5.42-5.74 16.91 16.91 0 01-2-8.17V24.12H138a4.19 4.19 0 01-2.9-1 3.18 3.18 0 01-1.1-2.47 3.37 3.37 0 011.11-2.65 4.19 4.19 0 012.9-1h3.92V5.13a4 4 0 011.19-3 4.66 4.66 0 016.14 0 4 4 0 011.19 3V17h7.25a4.19 4.19 0 012.9 1 3.37 3.37 0 011.11 2.64 3.19 3.19 0 01-1.11 2.48 4.19 4.19 0 01-2.9 1h-7.25v20.39a8.29 8.29 0 001.89 5.49 5.8 5.8 0 004.61 2.23h2.9a3.41 3.41 0 012.59 1.19z" stroke="#fff" fill="#fff" stroke-miterlimit="10" stroke-width="2"></path><path class="cls-4" d="M202 16.19q2.56 1.32 2.56 3.3a2.85 2.85 0 01-.09.83A3.28 3.28 0 01201 23a7.29 7.29 0 01-1.28-.17 34.82 34.82 0 00-5.54-.58q-6.14 0-9.89 2.72a8.62 8.62 0 00-3.75 7.35V56.4a4.15 4.15 0 01-1.07 3.05 4.33 4.33 0 01-3.2 1.07 4.46 4.46 0 01-3.16-1A4 4 0 01172 56.4V19.49a4.05 4.05 0 011.11-3.05 4.36 4.36 0 013.16-1.07q4.26 0 4.26 4.13v1.57a18 18 0 016.31-4.54 19.68 19.68 0 018-1.65 15.65 15.65 0 017.16 1.31zM243.78 18a21.45 21.45 0 018.36 8.13 23.21 23.21 0 013 11.89 23.28 23.28 0 01-3 11.8 21.14 21.14 0 01-8.31 8.13 26.75 26.75 0 01-24.35 0 21.05 21.05 0 01-8.36-8.13 23.27 23.27 0 01-3-11.8 23.44 23.44 0 013-11.89 21.06 21.06 0 018.39-8.13 25.05 25.05 0 0112.2-3 24.64 24.64 0 0112.07 3zm-19.87 6.48a14.13 14.13 0 00-5.42 5.52 16.27 16.27 0 00-2 8 16 16 0 002 8 14.19 14.19 0 005.42 5.49 16.36 16.36 0 0015.61 0 13.9 13.9 0 005.37-5.49 16.34 16.34 0 001.92-8 16.58 16.58 0 00-1.92-8 13.84 13.84 0 00-5.37-5.53 16.36 16.36 0 00-15.61 0zM297.92 17.43a17.75 17.75 0 017.33 7.22 23.17 23.17 0 012.64 11.43V56.4a4 4 0 01-1.24 3 4.65 4.65 0 01-6.23 0 4 4 0 01-1.24-3V36.09q0-6.69-3.71-10.11t-9.85-3.43a15 15 0 00-6.52 1.4 11.49 11.49 0 00-4.61 3.8 9.19 9.19 0 00-1.66 5.37V56.4a4.09 4.09 0 01-1.19 3 4.7 4.7 0 01-6.27 0 4 4 0 01-1.24-3V19.58a4 4 0 011.24-3.05 4.83 4.83 0 016.27 0 4.06 4.06 0 011.19 3.05v.91a19 19 0 016.48-4.09 23.45 23.45 0 0118.59 1z"></path><path d="M99.85 35.79l19.74-20.39c1.43-1.26 6.14-1.65 7.87.95 1.43 1.26 1 4.56-.44 5.81L112.5 38l16.35 16.93a4.27 4.27 0 01-1.29 5.65c-1.43 1.26-5.66 1.26-7.09 0L99.85 40.34a3 3 0 010-4.55z" fill="#fff"></path></g></svg> 