<svg xmlns="http://www.w3.org/2000/svg" width="512" height="512" viewBox="0 0 512 512"><g data-name="Out line"><path d="M410.343 466.343a37.298 37.298 0 01-52.686 0 53.316 53.316 0 00-75.314 0 37.298 37.298 0 01-52.686 0 53.316 53.316 0 00-75.314 0 37.298 37.298 0 01-52.686 0 53.316 53.316 0 00-75.314 0l-8 8 11.314 11.314 8-8a37.298 37.298 0 0152.686 0 53.316 53.316 0 0075.314 0 37.298 37.298 0 0152.686 0 53.316 53.316 0 0075.314 0 37.298 37.298 0 0152.686 0 53.317 53.317 0 0075.314 0 37.296 37.296 0 0152.686 0l8 8 11.314-11.314-8-8a53.316 53.316 0 00-75.314 0z"></path><path d="M488 288h-16v-40a7.998 7.998 0 00-8-8h-88v-53.33L494.4 28.8a8.001 8.001 0 00-11.58-10.9l-160 136A8 8 0 00320 160v16h-48v-24a7.998 7.998 0 00-8-8h-88a7.998 7.998 0 00-8 8v48h-8v-56a24.032 24.032 0 00-24-24h-8v16h8a8.01 8.01 0 018 8v56h-8v-24a24.032 24.032 0 00-24-24h-8v16h8a8.01 8.01 0 018 8v24h-11.42L30.9 67.94a8.001 8.001 0 00-14.57 6.32l37.11 126.16A8.01 8.01 0 0048 208v80H32a7.998 7.998 0 00-8 8v24a7.998 7.998 0 008 8h16v80a7.998 7.998 0 008 8h24v24h16v-24h8v24h16v-24h16v24h16v-24h16v24h16v-24h8v24h16v-24h72v32h16v-32h8v24h16v-24h16v24h16v-24h8v40h16v-40h8a8.021 8.021 0 005.17-1.89l103.92-87.94a.511.511 0 00.08-.07A7.96 7.96 0 00496 320v-24a7.998 7.998 0 00-8-8zm-301.47-72l-32.04 58.73L138.47 216zM128 238.41L141.53 288h-27.06zm64 .96V288h-26.53zM117.53 216l-16.02 58.73L69.47 216zm-67.57-84.09L90.01 200H69.98zM64 239.37L90.53 288H64zM40 312v-8h152v8zm24 88v-72h128v72zm192 0h-28.11L256 382.43zm-48-6.43v-51.14L248.91 368zm48-40L215.09 328 256 302.43zm-48-40v-51.14L248.91 288zm48-40L215.09 248 256 222.43zm-48-40V216h28.11zM256 200h-72v-40h72zm200 56v32h-80v-32zm-120-92.3l102.69-87.29L361.6 179.2a7.983 7.983 0 00-1.6 4.8v16h-24zm0 52.3h24v72h-24zm-64-24h48v96h-48zm0 112h208v8H272zm104 96H272v-72h104zm16-9.25V328h74.15z"></path><path d="M112 344h48v16h-48zM144 368h32v16h-32zM80 368h48v16H80z"></path></g></svg> 