<svg viewBox="0 0 40 40">
    <path class="back" d="M40,20A20,20,0,1,1,20,0,20,20,0,0,1,40,20Z" />
    <path class="line" d="M28.13,26.87H11.87A.87.87,0,0,1,11,26v-.27a.87.87,0,0,1,.87-.87H28.13a.87.87,0,0,1,.87.87V26A.87.87,0,0,1,28.13,26.87Z" />
    <path class="line" d="M28.24,20.5H15.76a.76.76,0,0,1-.76-.76v-.47a.77.77,0,0,1,.76-.76H28.24a.77.77,0,0,1,.76.76v.47A.77.77,0,0,1,28.24,20.5Z" />
    <path class="line" d="M28.13,14.13H11.87a.87.87,0,0,1-.87-.87V13a.87.87,0,0,1,.87-.87H28.13A.87.87,0,0,1,29,13v.27A.87.87,0,0,1,28.13,14.13Z" />
    <path class="close" d="M21.08,19.5l4.81-4.81a.77.77,0,0,0-1.08-1.08L20,18.42l-4.81-4.81a.77.77,0,0,0-1.08,1.08l4.81,4.81-4.81,4.81a.76.76,0,1,0,1.08,1.08L20,20.58l4.81,4.81a.77.77,0,0,0,1.08-1.08Z" />
</svg>
